{
  "accessors": [
    {
      "bufferView": 1,
      "componentType": 5126,
      "count": 24,
      "max": [
        0.4399850070476532,
        0.10695900022983551,
        1.0477099418640137
      ],
      "min": [
        -0.62991702556610107,
        -0.19879400730133057,
        0.74195700883865356
      ],
      "type": "VEC3"
    },
    {
      "bufferView": 1,
      "byteOffset": 288,
      "componentType": 5126,
      "count": 24,
      "max": [
        1,
        1,
        1
      ],
      "min": [
        -1,
        -1,
        -1
      ],
      "type": "VEC3"
    },
    {
      "bufferView": 0,
      "componentType": 5125,
      "count": 36,
      "max": [
        23
      ],
      "min": [
        0
      ],
      "type": "SCALAR"
    },
    {
      "bufferView": 1,
      "byteOffset": 576,
      "componentType": 5126,
      "count": 24,
      "max": [
        0.79735398292541504,
        0.86618101596832275,
        0.6416509747505188
      ],
      "min": [
        -0.85215198993682861,
        -0.76026302576065063,
        0.071992002427577972
      ],
      "type": "VEC3"
    },
    {
      "bufferView": 1,
      "byteOffset": 864,
      "componentType": 5126,
      "count": 24,
      "max": [
        1,
        1,
        1
      ],
      "min": [
        -1,
        -1,
        -1
      ],
      "type": "VEC3"
    },
    {
      "bufferView": 0,
      "byteOffset": 144,
      "componentType": 5125,
      "count": 36,
      "max": [
        23
      ],
      "min": [
        0
      ],
      "type": "SCALAR"
    },
    {
      "bufferView": 1,
      "byteOffset": 1152,
      "componentType": 5126,
      "count": 502,
      "max": [
        -0.08827199786901474,
        -0.37613800168037415,
        1.3633049726486206
      ],
      "min": [
        -0.5467420220375061,
        -0.77143800258636475,
        1.1435450315475464
      ],
      "type": "VEC3"
    },
    {
      "bufferView": 1,
      "byteOffset": 7176,
      "componentType": 5126,
      "count": 502,
      "max": [
        0.99779975414276123,
        0.99779975414276123,
        0.95716267824172974
      ],
      "min": [
        -0.99779975414276123,
        -0.99779975414276123,
        -0.93815523386001587
      ],
      "type": "VEC3"
    },
    {
      "bufferView": 0,
      "byteOffset": 288,
      "componentType": 5125,
      "count": 2814,
      "max": [
        501
      ],
      "min": [
        0
      ],
      "type": "SCALAR"
    },
    {
      "bufferView": 1,
      "byteOffset": 13200,
      "componentType": 5126,
      "count": 502,
      "max": [
        0.33096799254417419,
        -0.3772369921207428,
        1.351768970489502
      ],
      "min": [
        -0.13377399742603302,
        -0.827767014503479,
        1.1320029497146606
      ],
      "type": "VEC3"
    },
    {
      "bufferView": 1,
      "byteOffset": 19224,
      "componentType": 5126,
      "count": 502,
      "max": [
        0.99968248605728149,
        0.99968248605728149,
        0.9703289270401001
      ],
      "min": [
        -0.99968248605728149,
        -0.99968248605728149,
        -0.93813204765319824
      ],
      "type": "VEC3"
    },
    {
      "bufferView": 0,
      "byteOffset": 11544,
      "componentType": 5125,
      "count": 2814,
      "max": [
        501
      ],
      "min": [
        0
      ],
      "type": "SCALAR"
    },
    {
      "bufferView": 1,
      "byteOffset": 25248,
      "componentType": 5126,
      "count": 26,
      "max": [
        -0.34251001477241516,
        -0.47767800092697144,
        1.1837929487228394
      ],
      "min": [
        -0.42239999771118164,
        -0.5652269721031189,
        1.0132149457931519
      ],
      "type": "VEC3"
    },
    {
      "bufferView": 1,
      "byteOffset": 25560,
      "componentType": 5126,
      "count": 26,
      "max": [
        0.97207266092300415,
        0.86422502994537354,
        0.99951773881912231
      ],
      "min": [
        -0.8860548734664917,
        -0.97904831171035767,
        -0.99996519088745117
      ],
      "type": "VEC3"
    },
    {
      "bufferView": 0,
      "byteOffset": 22800,
      "componentType": 5125,
      "count": 78,
      "max": [
        25
      ],
      "min": [
        0
      ],
      "type": "SCALAR"
    },
    {
      "bufferView": 1,
      "byteOffset": 25872,
      "componentType": 5126,
      "count": 26,
      "max": [
        0.21885700523853302,
        -0.52133399248123169,
        1.1723200082778931
      ],
      "min": [
        0.12282200157642365,
        -0.59176498651504517,
        1.0016789436340332
      ],
      "type": "VEC3"
    },
    {
      "bufferView": 1,
      "byteOffset": 26184,
      "componentType": 5126,
      "count": 26,
      "max": [
        0.94521331787109375,
        0.65409219264984131,
        0.999126136302948
      ],
      "min": [
        -0.94752824306488037,
        -0.97905611991882324,
        -0.99612921476364136
      ],
      "type": "VEC3"
    },
    {
      "bufferView": 0,
      "byteOffset": 23112,
      "componentType": 5125,
      "count": 78,
      "max": [
        25
      ],
      "min": [
        0
      ],
      "type": "SCALAR"
    },
    {
      "bufferView": 1,
      "byteOffset": 26496,
      "componentType": 5126,
      "count": 4,
      "max": [
        -0.32425400614738464,
        -0.41823598742485046,
        1.1843580007553101
      ],
      "min": [
        -0.49783700704574585,
        -0.55863100290298462,
        1.1499569416046143
      ],
      "type": "VEC3"
    },
    {
      "bufferView": 0,
      "byteOffset": 23424,
      "componentType": 5125,
      "count": 4,
      "max": [
        3
      ],
      "min": [
        0
      ],
      "type": "SCALAR"
    },
    {
      "bufferView": 1,
      "byteOffset": 26544,
      "componentType": 5126,
      "count": 211,
      "max": [
        -0.11334600299596786,
        -0.3852669894695282,
        1.5933049917221069
      ],
      "min": [
        -0.54383999109268188,
        -0.74159699678421021,
        0.64387702941894531
      ],
      "type": "VEC3"
    },
    {
      "bufferView": 1,
      "byteOffset": 29076,
      "componentType": 5126,
      "count": 211,
      "max": [
        0.97599661350250244,
        0.8604590892791748,
        0.99999690055847168
      ],
      "min": [
        -0.94489961862564087,
        -0.99087405204772949,
        -1
      ],
      "type": "VEC3"
    },
    {
      "bufferView": 0,
      "byteOffset": 23440,
      "componentType": 5125,
      "count": 1020,
      "max": [
        210
      ],
      "min": [
        0
      ],
      "type": "SCALAR"
    },
    {
      "bufferView": 1,
      "byteOffset": 31608,
      "componentType": 5126,
      "count": 24,
      "max": [
        -0.026141999289393425,
        0.13147899508476257,
        1.0763920545578003
      ],
      "min": [
        -0.16379000246524811,
        -0.22331400215625763,
        0.71327501535415649
      ],
      "type": "VEC3"
    },
    {
      "bufferView": 1,
      "byteOffset": 31896,
      "componentType": 5126,
      "count": 24,
      "max": [
        1,
        1,
        1
      ],
      "min": [
        -1,
        -1,
        -1
      ],
      "type": "VEC3"
    },
    {
      "bufferView": 0,
      "byteOffset": 27520,
      "componentType": 5125,
      "count": 36,
      "max": [
        23
      ],
      "min": [
        0
      ],
      "type": "SCALAR"
    },
    {
      "bufferView": 1,
      "byteOffset": 32184,
      "componentType": 5126,
      "count": 2,
      "max": [
        0.2642579972743988,
        -0.53161299228668213,
        1.1718709468841553
      ],
      "min": [
        0.22212900221347809,
        -0.58434200286865234,
        1.1372189521789551
      ],
      "type": "VEC3"
    },
    {
      "bufferView": 0,
      "byteOffset": 27664,
      "componentType": 5125,
      "count": 2,
      "max": [
        1
      ],
      "min": [
        0
      ],
      "type": "SCALAR"
    },
    {
      "bufferView": 1,
      "byteOffset": 32208,
      "componentType": 5126,
      "count": 84,
      "max": [
        0.32551300525665283,
        -0.38583999872207642,
        1.2961260080337524
      ],
      "min": [
        -0.10870800167322159,
        -0.79826802015304565,
        0.63234102725982666
      ],
      "type": "VEC3"
    },
    {
      "bufferView": 1,
      "byteOffset": 33216,
      "componentType": 5126,
      "count": 84,
      "max": [
        0.96285897493362427,
        0.90172773599624634,
        1
      ],
      "min": [
        -0.96090805530548096,
        -0.99887961149215698,
        -0.95058923959732056
      ],
      "type": "VEC3"
    },
    {
      "bufferView": 0,
      "byteOffset": 27672,
      "componentType": 5125,
      "count": 399,
      "max": [
        83
      ],
      "min": [
        0
      ],
      "type": "SCALAR"
    },
    {
      "bufferView": 1,
      "byteOffset": 34224,
      "componentType": 5126,
      "count": 1396,
      "max": [
        0.32093000411987305,
        -0.37776398658752441,
        1.4171669483184814
      ],
      "min": [
        0.056141998618841171,
        -0.64432400465011597,
        1.193958044052124
      ],
      "type": "VEC3"
    },
    {
      "bufferView": 1,
      "byteOffset": 50976,
      "componentType": 5126,
      "count": 1396,
      "max": [
        0.99731379747390747,
        0.99705445766448975,
        1
      ],
      "min": [
        -0.99705445766448975,
        -0.99705445766448975,
        -1
      ],
      "type": "VEC3"
    },
    {
      "bufferView": 0,
      "byteOffset": 29268,
      "componentType": 5125,
      "count": 7755,
      "max": [
        1395
      ],
      "min": [
        0
      ],
      "type": "SCALAR"
    },
    {
      "bufferView": 1,
      "byteOffset": 67728,
      "componentType": 5126,
      "count": 216,
      "max": [
        0.99036300182342529,
        -0.62295997142791748,
        2.5686440467834473
      ],
      "min": [
        -1.0863970518112183,
        -0.77205801010131836,
        0.62056398391723633
      ],
      "type": "VEC3"
    },
    {
      "bufferView": 1,
      "byteOffset": 70320,
      "componentType": 5126,
      "count": 216,
      "max": [
        1,
        1,
        0.99922358989715576
      ],
      "min": [
        -1,
        -1,
        -0.99954086542129517
      ],
      "type": "VEC3"
    },
    {
      "bufferView": 0,
      "byteOffset": 60288,
      "componentType": 5125,
      "count": 480,
      "max": [
        215
      ],
      "min": [
        0
      ],
      "type": "SCALAR"
    },
    {
      "bufferView": 1,
      "byteOffset": 72912,
      "componentType": 5126,
      "count": 68,
      "max": [
        1.0330760478973389,
        -0.56390601396560669,
        1.5288289785385132
      ],
      "min": [
        -1.1291099786758423,
        -0.84598499536514282,
        1.2907400131225586
      ],
      "type": "VEC3"
    },
    {
      "bufferView": 1,
      "byteOffset": 73728,
      "componentType": 5126,
      "count": 68,
      "max": [
        1,
        1,
        0.99899595975875854
      ],
      "min": [
        -1,
        -1,
        -0.9975542426109314
      ],
      "type": "VEC3"
    },
    {
      "bufferView": 0,
      "byteOffset": 62208,
      "componentType": 5125,
      "count": 120,
      "max": [
        67
      ],
      "min": [
        0
      ],
      "type": "SCALAR"
    }
  ],
  "asset": {
    "extras": {
      "author": "kllewis5 (https://sketchfab.com/kllewis5)",
      "license": "CC-BY-4.0 (http://creativecommons.org/licenses/by/4.0/)",
      "source": "https://sketchfab.com/3d-models/amazing-mongo16-39247357f19e468c9863f5370cc03974",
      "title": "Amazing Mongo16"
    },
    "generator": "Sketchfab-9.55.0",
    "version": "2.0"
  },
  "bufferViews": [
    {
      "buffer": 0,
      "byteLength": 62688,
      "byteOffset": 0,
      "name": "floatBufferViews",
      "target": 34963
    },
    {
      "buffer": 0,
      "byteLength": 74544,
      "byteOffset": 62688,
      "byteStride": 12,
      "name": "floatBufferViews",
      "target": 34962
    }
  ],
  "buffers": [
    {
      "byteLength": 137232,
      "uri": "scene.bin"
    }
  ],
  "materials": [
    {
      "doubleSided": true,
      "emissiveFactor": [
        0,
        0,
        0
      ],
      "name": "Material",
      "pbrMetallicRoughness": {
        "baseColorFactor": [
          0.346024,
          0.0093360000000000005,
          0.0077679999999999997,
          1
        ],
        "metallicFactor": 0,
        "roughnessFactor": 1
      }
    },
    {
      "doubleSided": true,
      "emissiveFactor": [
        0,
        0,
        0
      ],
      "name": "Material.001",
      "pbrMetallicRoughness": {
        "baseColorFactor": [
          0.027472,
          0.200127,
          0.63928200000000002,
          1
        ],
        "metallicFactor": 0,
        "roughnessFactor": 0.84349154199267129
      }
    },
    {
      "doubleSided": true,
      "emissiveFactor": [
        0,
        0,
        0
      ],
      "name": "Material.002",
      "pbrMetallicRoughness": {
        "baseColorFactor": [
          0.64000000000000001,
          0.34149400000000002,
          0.043505000000000002,
          1
        ],
        "metallicFactor": 0,
        "roughnessFactor": 0.88940062473424486
      }
    },
    {
      "doubleSided": true,
      "emissiveFactor": [
        0,
        0,
        0
      ],
      "name": "Material.003",
      "pbrMetallicRoughness": {
        "baseColorFactor": [
          0.29011500000000001,
          0.069791000000000006,
          0.020191000000000001,
          1
        ],
        "metallicFactor": 0,
        "roughnessFactor": 0.84349154199267129
      }
    },
    {
      "doubleSided": true,
      "emissiveFactor": [
        0,
        0,
        0
      ],
      "name": "color_11107152mat",
      "pbrMetallicRoughness": {
        "baseColorFactor": [
          0.530196,
          0.385882,
          0.25097999999999998,
          1
        ],
        "metallicFactor": 0,
        "roughnessFactor": 1
      }
    },
    {
      "doubleSided": true,
      "emissiveFactor": [
        0,
        0,
        0
      ],
      "name": "color_11107152mat.002",
      "pbrMetallicRoughness": {
        "baseColorFactor": [
          0.530196,
          0.385882,
          0.25097999999999998,
          1
        ],
        "metallicFactor": 0,
        "roughnessFactor": 1
      }
    },
    {
      "doubleSided": true,
      "emissiveFactor": [
        0,
        0,
        0
      ],
      "name": "color_16448250mat",
      "pbrMetallicRoughness": {
        "baseColorFactor": [
          0.78431399999999996,
          0.78431399999999996,
          0.78431399999999996,
          1
        ],
        "metallicFactor": 0,
        "roughnessFactor": 1
      }
    },
    {
      "doubleSided": true,
      "emissiveFactor": [
        0,
        0,
        0
      ],
      "name": "color_16448250mat.001",
      "pbrMetallicRoughness": {
        "baseColorFactor": [
          0.78431399999999996,
          0.78431399999999996,
          0.78431399999999996,
          1
        ],
        "metallicFactor": 0,
        "roughnessFactor": 1
      }
    },
    {
      "doubleSided": true,
      "emissiveFactor": [
        0,
        0,
        0
      ],
      "name": "color_2829873mat",
      "pbrMetallicRoughness": {
        "baseColorFactor": [
          0.13490199999999999,
          0.144314,
          0.153725,
          1
        ],
        "metallicFactor": 0,
        "roughnessFactor": 1
      }
    },
    {
      "doubleSided": true,
      "emissiveFactor": [
        0,
        0,
        0
      ],
      "name": "color_2829873mat.001",
      "pbrMetallicRoughness": {
        "baseColorFactor": [
          0.13490199999999999,
          0.144314,
          0.153725,
          1
        ],
        "metallicFactor": 0,
        "roughnessFactor": 1
      }
    },
    {
      "doubleSided": true,
      "emissiveFactor": [
        0,
        0,
        0
      ],
      "name": "color_2829873mat.002",
      "pbrMetallicRoughness": {
        "baseColorFactor": [
          0.13490199999999999,
          0.144314,
          0.153725,
          1
        ],
        "metallicFactor": 0,
        "roughnessFactor": 1
      }
    },
    {
      "doubleSided": true,
      "emissiveFactor": [
        0,
        0,
        0
      ],
      "name": "color_2829873mat.003",
      "pbrMetallicRoughness": {
        "baseColorFactor": [
          0.13490199999999999,
          0.144314,
          0.153725,
          1
        ],
        "metallicFactor": 0,
        "roughnessFactor": 1
      }
    }
  ],
  "meshes": [
    {
      "primitives": [
        {
          "attributes": {
            "NORMAL": 1,
            "POSITION": 0
          },
          "indices": 2,
          "material": 1,
          "mode": 4
        }
      ]
    },
    {
      "primitives": [
        {
          "attributes": {
            "NORMAL": 4,
            "POSITION": 3
          },
          "indices": 5,
          "material": 3,
          "mode": 4
        }
      ]
    },
    {
      "primitives": [
        {
          "attributes": {
            "NORMAL": 7,
            "POSITION": 6
          },
          "indices": 8,
          "material": 4,
          "mode": 4
        }
      ]
    },
    {
      "primitives": [
        {
          "attributes": {
            "NORMAL": 10,
            "POSITION": 9
          },
          "indices": 11,
          "material": 5,
          "mode": 4
        }
      ]
    },
    {
      "primitives": [
        {
          "attributes": {
            "NORMAL": 13,
            "POSITION": 12
          },
          "indices": 14,
          "material": 6,
          "mode": 4
        }
      ]
    },
    {
      "primitives": [
        {
          "attributes": {
            "NORMAL": 16,
            "POSITION": 15
          },
          "indices": 17,
          "material": 7,
          "mode": 4
        }
      ]
    },
    {
      "primitives": [
        {
          "attributes": {
            "POSITION": 18
          },
          "indices": 19,
          "material": 8,
          "mode": 1
        }
      ]
    },
    {
      "primitives": [
        {
          "attributes": {
            "NORMAL": 21,
            "POSITION": 20
          },
          "indices": 22,
          "material": 8,
          "mode": 4
        }
      ]
    },
    {
      "primitives": [
        {
          "attributes": {
            "NORMAL": 24,
            "POSITION": 23
          },
          "indices": 25,
          "material": 9,
          "mode": 4
        }
      ]
    },
    {
      "primitives": [
        {
          "attributes": {
            "POSITION": 26
          },
          "indices": 27,
          "material": 10,
          "mode": 1
        }
      ]
    },
    {
      "primitives": [
        {
          "attributes": {
            "NORMAL": 29,
            "POSITION": 28
          },
          "indices": 30,
          "material": 10,
          "mode": 4
        }
      ]
    },
    {
      "primitives": [
        {
          "attributes": {
            "NORMAL": 32,
            "POSITION": 31
          },
          "indices": 33,
          "material": 11,
          "mode": 4
        }
      ]
    },
    {
      "primitives": [
        {
          "attributes": {
            "NORMAL": 35,
            "POSITION": 34
          },
          "indices": 36,
          "material": 0,
          "mode": 4
        }
      ]
    },
    {
      "primitives": [
        {
          "attributes": {
            "NORMAL": 38,
            "POSITION": 37
          },
          "indices": 39,
          "material": 2,
          "mode": 4
        }
      ]
    }
  ],
  "nodes": [
    {
      "children": [
        1
      ],
      "name": "RootNode (gltf orientation matrix)",
      "rotation": [
        -0.70710678118654746,
        -0,
        -0,
        0.70710678118654757
      ]
    },
    {
      "children": [
        2
      ],
      "name": "RootNode (model correction matrix)"
    },
    {
      "children": [
        3,
        4,
        5,
        6,
        7,
        8,
        9,
        10,
        11,
        12,
        13,
        14,
        15,
        16
      ],
      "name": "AmazingMongo16.obj.cleaner.materialmerger.gles"
    },
    {
      "mesh": 0,
      "name": ""
    },
    {
      "mesh": 1,
      "name": ""
    },
    {
      "mesh": 2,
      "name": ""
    },
    {
      "mesh": 3,
      "name": ""
    },
    {
      "mesh": 4,
      "name": ""
    },
    {
      "mesh": 5,
      "name": ""
    },
    {
      "mesh": 6,
      "name": ""
    },
    {
      "mesh": 7,
      "name": ""
    },
    {
      "mesh": 8,
      "name": ""
    },
    {
      "mesh": 9,
      "name": ""
    },
    {
      "mesh": 10,
      "name": ""
    },
    {
      "mesh": 11,
      "name": ""
    },
    {
      "mesh": 12,
      "name": ""
    },
    {
      "mesh": 13,
      "name": ""
    }
  ],
  "scene": 0,
  "scenes": [
    {
      "name": "OSG_Scene",
      "nodes": [
        0
      ]
    }
  ]
}

