{
  "accessors": [
    {
      "bufferView": 1,
      "componentType": 5126,
      "count": 24,
      "max": [
        0.79735398292541504,
        0.86618101596832275,
        0.6416509747505188
      ],
      "min": [
        -0.85215198993682861,
        -0.76026302576065063,
        0.071992002427577972
      ],
      "type": "VEC3"
    },
    {
      "bufferView": 1,
      "byteOffset": 288,
      "componentType": 5126,
      "count": 24,
      "max": [
        1,
        1,
        1
      ],
      "min": [
        -1,
        -1,
        -1
      ],
      "type": "VEC3"
    },
    {
      "bufferView": 0,
      "componentType": 5125,
      "count": 36,
      "max": [
        23
      ],
      "min": [
        0
      ],
      "type": "SCALAR"
    },
    {
      "bufferView": 1,
      "byteOffset": 576,
      "componentType": 5126,
      "count": 64,
      "max": [
        -0.15430699288845062,
        -0.39579901099205017,
        1.426766037940979
      ],
      "min": [
        -0.30633500218391418,
        -0.54684799909591675,
        1.3703199625015259
      ],
      "type": "VEC3"
    },
    {
      "bufferView": 1,
      "byteOffset": 1344,
      "componentType": 5126,
      "count": 64,
      "max": [
        0.72706973552703857,
        0.7272980809211731,
        0.68598884344100952
      ],
      "min": [
        -0.72706973552703857,
        -0.72729617357254028,
        -0.68598884344100952
      ],
      "type": "VEC3"
    },
    {
      "bufferView": 0,
      "byteOffset": 144,
      "componentType": 5125,
      "count": 372,
      "max": [
        63
      ],
      "min": [
        0
      ],
      "type": "SCALAR"
    },
    {
      "bufferView": 1,
      "byteOffset": 2112,
      "componentType": 5126,
      "count": 600,
      "max": [
        -0.027086000889539719,
        -0.37462699413299561,
        1.3928849697113037
      ],
      "min": [
        -0.33070999383926392,
        -0.68128997087478638,
        0.95929700136184692
      ],
      "type": "VEC3"
    },
    {
      "bufferView": 1,
      "byteOffset": 9312,
      "componentType": 5126,
      "count": 600,
      "max": [
        0.9997667670249939,
        0.9997667670249939,
        0.95982348918914795
      ],
      "min": [
        -0.9997667670249939,
        -0.9997667670249939,
        -0.97623848915100098
      ],
      "type": "VEC3"
    },
    {
      "bufferView": 0,
      "byteOffset": 1632,
      "componentType": 5125,
      "count": 3405,
      "max": [
        599
      ],
      "min": [
        0
      ],
      "type": "SCALAR"
    },
    {
      "bufferView": 1,
      "byteOffset": 16512,
      "componentType": 5126,
      "count": 486,
      "max": [
        0.54269802570343018,
        -0.13498400151729584,
        1.1052219867706299
      ],
      "min": [
        0.34242799878120422,
        -0.35717299580574036,
        0.88303297758102417
      ],
      "type": "VEC3"
    },
    {
      "bufferView": 1,
      "byteOffset": 22344,
      "componentType": 5126,
      "count": 486,
      "max": [
        0.43510103225708008,
        0.9985191822052002,
        0.9985191822052002
      ],
      "min": [
        -0.93817293643951416,
        -0.9985191822052002,
        -0.9985191822052002
      ],
      "type": "VEC3"
    },
    {
      "bufferView": 0,
      "byteOffset": 15252,
      "componentType": 5125,
      "count": 2754,
      "max": [
        485
      ],
      "min": [
        0
      ],
      "type": "SCALAR"
    },
    {
      "bufferView": 1,
      "byteOffset": 28176,
      "componentType": 5126,
      "count": 26,
      "max": [
        -0.15470500290393829,
        -0.45690399408340454,
        1.1851500272750854
      ],
      "min": [
        -0.23020599782466888,
        -0.55546098947525024,
        1.0124930143356323
      ],
      "type": "VEC3"
    },
    {
      "bufferView": 1,
      "byteOffset": 28488,
      "componentType": 5126,
      "count": 26,
      "max": [
        0.98661571741104126,
        0.96770185232162476,
        0.99867349863052368
      ],
      "min": [
        -0.79391515254974365,
        -0.98538261651992798,
        -0.99984520673751831
      ],
      "type": "VEC3"
    },
    {
      "bufferView": 0,
      "byteOffset": 26268,
      "componentType": 5125,
      "count": 78,
      "max": [
        25
      ],
      "min": [
        0
      ],
      "type": "SCALAR"
    },
    {
      "bufferView": 1,
      "byteOffset": 28800,
      "componentType": 5126,
      "count": 26,
      "max": [
        0.045402001589536667,
        0.021110000088810921,
        0.53997898101806641
      ],
      "min": [
        -0.034954998642206192,
        -0.04920399934053421,
        0.36933800578117371
      ],
      "type": "VEC3"
    },
    {
      "bufferView": 1,
      "byteOffset": 29112,
      "componentType": 5126,
      "count": 26,
      "max": [
        0.9653925895690918,
        0.76838618516921997,
        0.99888545274734497
      ],
      "min": [
        -0.98076492547988892,
        -0.99996304512023926,
        -0.99937331676483154
      ],
      "type": "VEC3"
    },
    {
      "bufferView": 0,
      "byteOffset": 26580,
      "componentType": 5125,
      "count": 78,
      "max": [
        25
      ],
      "min": [
        0
      ],
      "type": "SCALAR"
    },
    {
      "bufferView": 1,
      "byteOffset": 29424,
      "componentType": 5126,
      "count": 26,
      "max": [
        -0.16236799955368042,
        -0.43172499537467957,
        1.1904309988021851
      ],
      "min": [
        -0.23559699952602386,
        -0.53288400173187256,
        1.0181430578231812
      ],
      "type": "VEC3"
    },
    {
      "bufferView": 1,
      "byteOffset": 29736,
      "componentType": 5126,
      "count": 26,
      "max": [
        0.94312965869903564,
        0.96205586194992065,
        0.99887675046920776
      ],
      "min": [
        -0.83859509229660034,
        -0.99241858720779419,
        -0.9993739128112793
      ],
      "type": "VEC3"
    },
    {
      "bufferView": 0,
      "byteOffset": 26892,
      "componentType": 5125,
      "count": 78,
      "max": [
        25
      ],
      "min": [
        0
      ],
      "type": "SCALAR"
    },
    {
      "bufferView": 1,
      "byteOffset": 30048,
      "componentType": 5126,
      "count": 130,
      "max": [
        -0.10249099880456924,
        -0.38107401132583618,
        1.5943640470504761
      ],
      "min": [
        -0.34004500508308411,
        -0.61887902021408081,
        1.3615440130233765
      ],
      "type": "VEC3"
    },
    {
      "bufferView": 1,
      "byteOffset": 31608,
      "componentType": 5126,
      "count": 130,
      "max": [
        0.73437005281448364,
        0.74032074213027954,
        0.75349783897399902
      ],
      "min": [
        -0.73431533575057983,
        -0.74032849073410034,
        -0.99997353553771973
      ],
      "type": "VEC3"
    },
    {
      "bufferView": 0,
      "byteOffset": 27204,
      "componentType": 5125,
      "count": 624,
      "max": [
        129
      ],
      "min": [
        0
      ],
      "type": "SCALAR"
    },
    {
      "bufferView": 1,
      "byteOffset": 33168,
      "componentType": 5126,
      "count": 1396,
      "max": [
        0.61545997858047485,
        -0.11367399990558624,
        1.1141489744186401
      ],
      "min": [
        0.36711499094963074,
        -0.36892300844192505,
        0.77875500917434692
      ],
      "type": "VEC3"
    },
    {
      "bufferView": 1,
      "byteOffset": 49920,
      "componentType": 5126,
      "count": 1396,
      "max": [
        1,
        0.99850833415985107,
        0.98605650663375854
      ],
      "min": [
        -1,
        -0.99851381778717041,
        -0.99851381778717041
      ],
      "type": "VEC3"
    },
    {
      "bufferView": 0,
      "byteOffset": 29700,
      "componentType": 5125,
      "count": 7755,
      "max": [
        1395
      ],
      "min": [
        0
      ],
      "type": "SCALAR"
    },
    {
      "bufferView": 1,
      "byteOffset": 66672,
      "componentType": 5126,
      "count": 48,
      "max": [
        0.36557000875473022,
        -0.081375002861022949,
        1.1085840463638306
      ],
      "min": [
        -0.52171599864959717,
        -0.38655900955200195,
        0.80340099334716797
      ],
      "type": "VEC3"
    },
    {
      "bufferView": 1,
      "byteOffset": 67248,
      "componentType": 5126,
      "count": 48,
      "max": [
        1,
        1,
        1
      ],
      "min": [
        -1,
        -1,
        -1
      ],
      "type": "VEC3"
    },
    {
      "bufferView": 0,
      "byteOffset": 60720,
      "componentType": 5125,
      "count": 72,
      "max": [
        47
      ],
      "min": [
        0
      ],
      "type": "SCALAR"
    },
    {
      "bufferView": 1,
      "byteOffset": 67824,
      "componentType": 5126,
      "count": 68,
      "max": [
        1.0330760478973389,
        -0.56390601396560669,
        1.5288289785385132
      ],
      "min": [
        -1.1291099786758423,
        -0.84598499536514282,
        1.2907400131225586
      ],
      "type": "VEC3"
    },
    {
      "bufferView": 1,
      "byteOffset": 68640,
      "componentType": 5126,
      "count": 68,
      "max": [
        1,
        1,
        0.99899595975875854
      ],
      "min": [
        -1,
        -1,
        -0.9975542426109314
      ],
      "type": "VEC3"
    },
    {
      "bufferView": 0,
      "byteOffset": 61008,
      "componentType": 5125,
      "count": 120,
      "max": [
        67
      ],
      "min": [
        0
      ],
      "type": "SCALAR"
    },
    {
      "bufferView": 1,
      "byteOffset": 69456,
      "componentType": 5126,
      "count": 216,
      "max": [
        0.99036300182342529,
        -0.62295997142791748,
        2.5686440467834473
      ],
      "min": [
        -1.0863970518112183,
        -0.77205801010131836,
        0.62056398391723633
      ],
      "type": "VEC3"
    },
    {
      "bufferView": 1,
      "byteOffset": 72048,
      "componentType": 5126,
      "count": 216,
      "max": [
        1,
        1,
        0.99922358989715576
      ],
      "min": [
        -1,
        -1,
        -0.99954086542129517
      ],
      "type": "VEC3"
    },
    {
      "bufferView": 0,
      "byteOffset": 61488,
      "componentType": 5125,
      "count": 480,
      "max": [
        215
      ],
      "min": [
        0
      ],
      "type": "SCALAR"
    },
    {
      "bufferView": 1,
      "byteOffset": 74640,
      "componentType": 5126,
      "count": 211,
      "max": [
        -0.036299001425504684,
        -0.39048698544502258,
        1.2324550151824951
      ],
      "min": [
        -0.31992301344871521,
        -0.80295300483703613,
        0.64880502223968506
      ],
      "type": "VEC3"
    },
    {
      "bufferView": 1,
      "byteOffset": 77172,
      "componentType": 5126,
      "count": 211,
      "max": [
        0.96839863061904907,
        0.80426633358001709,
        1
      ],
      "min": [
        -0.96692168712615967,
        -0.99097269773483276,
        -0.9086310863494873
      ],
      "type": "VEC3"
    },
    {
      "bufferView": 0,
      "byteOffset": 63408,
      "componentType": 5125,
      "count": 1020,
      "max": [
        210
      ],
      "min": [
        0
      ],
      "type": "SCALAR"
    }
  ],
  "asset": {
    "extras": {
      "author": "kllewis5 (https://sketchfab.com/kllewis5)",
      "license": "CC-BY-4.0 (http://creativecommons.org/licenses/by/4.0/)",
      "source": "https://sketchfab.com/3d-models/amazing-mongo14-575a781101da4a38aea70b2747722d10",
      "title": "Amazing Mongo14"
    },
    "generator": "Sketchfab-9.55.0",
    "version": "2.0"
  },
  "bufferViews": [
    {
      "buffer": 0,
      "byteLength": 67488,
      "byteOffset": 0,
      "name": "floatBufferViews",
      "target": 34963
    },
    {
      "buffer": 0,
      "byteLength": 79704,
      "byteOffset": 67488,
      "byteStride": 12,
      "name": "floatBufferViews",
      "target": 34962
    }
  ],
  "buffers": [
    {
      "byteLength": 147192,
      "uri": "scene.bin"
    }
  ],
  "materials": [
    {
      "doubleSided": true,
      "emissiveFactor": [
        0,
        0,
        0
      ],
      "name": "Material.131",
      "pbrMetallicRoughness": {
        "baseColorFactor": [
          0.29011500000000001,
          0.069791000000000006,
          0.020191000000000001,
          1
        ],
        "metallicFactor": 0,
        "roughnessFactor": 0.84431313707611155
      }
    },
    {
      "doubleSided": true,
      "emissiveFactor": [
        0,
        0,
        0
      ],
      "name": "Material.133",
      "pbrMetallicRoughness": {
        "baseColorFactor": [
          0.027373999999999999,
          0.19947400000000001,
          0.64000000000000001,
          1
        ],
        "metallicFactor": 0,
        "roughnessFactor": 0.84431313707611155
      }
    },
    {
      "doubleSided": true,
      "emissiveFactor": [
        0,
        0,
        0
      ],
      "name": "Material.134",
      "pbrMetallicRoughness": {
        "baseColorFactor": [
          0.052764999999999999,
          0.052764999999999999,
          0.052764999999999999,
          1
        ],
        "metallicFactor": 0,
        "roughnessFactor": 1
      }
    },
    {
      "doubleSided": true,
      "emissiveFactor": [
        0,
        0,
        0
      ],
      "name": "Material.136",
      "pbrMetallicRoughness": {
        "baseColorFactor": [
          0.64000000000000001,
          0.34149400000000002,
          0.043505000000000002,
          1
        ],
        "metallicFactor": 0,
        "roughnessFactor": 0.88998121893411652
      }
    },
    {
      "doubleSided": true,
      "emissiveFactor": [
        0,
        0,
        0
      ],
      "name": "Material.137",
      "pbrMetallicRoughness": {
        "baseColorFactor": [
          0.346024,
          0.0093360000000000005,
          0.0077679999999999997,
          1
        ],
        "metallicFactor": 0,
        "roughnessFactor": 1
      }
    },
    {
      "doubleSided": true,
      "emissiveFactor": [
        0,
        0,
        0
      ],
      "name": "color_11107152mat.037",
      "pbrMetallicRoughness": {
        "baseColorFactor": [
          0.24365999999999999,
          0.17886199999999999,
          0.117911,
          1
        ],
        "metallicFactor": 0,
        "roughnessFactor": 1
      }
    },
    {
      "doubleSided": true,
      "emissiveFactor": [
        0,
        0,
        0
      ],
      "name": "color_11107152mat.042",
      "pbrMetallicRoughness": {
        "baseColorFactor": [
          0.530196,
          0.385882,
          0.25097999999999998,
          1
        ],
        "metallicFactor": 0,
        "roughnessFactor": 1
      }
    },
    {
      "doubleSided": true,
      "emissiveFactor": [
        0,
        0,
        0
      ],
      "name": "color_16448250mat.040",
      "pbrMetallicRoughness": {
        "baseColorFactor": [
          0.78431399999999996,
          0.78431399999999996,
          0.78431399999999996,
          1
        ],
        "metallicFactor": 0,
        "roughnessFactor": 1
      }
    },
    {
      "doubleSided": true,
      "emissiveFactor": [
        0,
        0,
        0
      ],
      "name": "color_16448250mat.041",
      "pbrMetallicRoughness": {
        "baseColorFactor": [
          0.78431399999999996,
          0.78431399999999996,
          0.78431399999999996,
          1
        ],
        "metallicFactor": 0,
        "roughnessFactor": 1
      }
    },
    {
      "doubleSided": true,
      "emissiveFactor": [
        0,
        0,
        0
      ],
      "name": "color_16448250mat.042",
      "pbrMetallicRoughness": {
        "baseColorFactor": [
          0.78431399999999996,
          0.78431399999999996,
          0.78431399999999996,
          1
        ],
        "metallicFactor": 0,
        "roughnessFactor": 1
      }
    },
    {
      "doubleSided": true,
      "emissiveFactor": [
        0,
        0,
        0
      ],
      "name": "color_2829873mat.054",
      "pbrMetallicRoughness": {
        "baseColorFactor": [
          0.13490199999999999,
          0.144314,
          0.153725,
          1
        ],
        "metallicFactor": 0,
        "roughnessFactor": 1
      }
    },
    {
      "doubleSided": true,
      "emissiveFactor": [
        0,
        0,
        0
      ],
      "name": "color_2829873mat.056",
      "pbrMetallicRoughness": {
        "baseColorFactor": [
          0.044754000000000002,
          0.047648999999999997,
          0.050534999999999997,
          1
        ],
        "metallicFactor": 0,
        "roughnessFactor": 1
      }
    },
    {
      "doubleSided": true,
      "emissiveFactor": [
        0,
        0,
        0
      ],
      "name": "color_2829873mat.057",
      "pbrMetallicRoughness": {
        "baseColorFactor": [
          0.13490199999999999,
          0.144314,
          0.153725,
          1
        ],
        "metallicFactor": 0,
        "roughnessFactor": 1
      }
    }
  ],
  "meshes": [
    {
      "primitives": [
        {
          "attributes": {
            "NORMAL": 1,
            "POSITION": 0
          },
          "indices": 2,
          "material": 0,
          "mode": 4
        }
      ]
    },
    {
      "primitives": [
        {
          "attributes": {
            "NORMAL": 4,
            "POSITION": 3
          },
          "indices": 5,
          "material": 2,
          "mode": 4
        }
      ]
    },
    {
      "primitives": [
        {
          "attributes": {
            "NORMAL": 7,
            "POSITION": 6
          },
          "indices": 8,
          "material": 5,
          "mode": 4
        }
      ]
    },
    {
      "primitives": [
        {
          "attributes": {
            "NORMAL": 10,
            "POSITION": 9
          },
          "indices": 11,
          "material": 6,
          "mode": 4
        }
      ]
    },
    {
      "primitives": [
        {
          "attributes": {
            "NORMAL": 13,
            "POSITION": 12
          },
          "indices": 14,
          "material": 7,
          "mode": 4
        }
      ]
    },
    {
      "primitives": [
        {
          "attributes": {
            "NORMAL": 16,
            "POSITION": 15
          },
          "indices": 17,
          "material": 8,
          "mode": 4
        }
      ]
    },
    {
      "primitives": [
        {
          "attributes": {
            "NORMAL": 19,
            "POSITION": 18
          },
          "indices": 20,
          "material": 9,
          "mode": 4
        }
      ]
    },
    {
      "primitives": [
        {
          "attributes": {
            "NORMAL": 22,
            "POSITION": 21
          },
          "indices": 23,
          "material": 10,
          "mode": 4
        }
      ]
    },
    {
      "primitives": [
        {
          "attributes": {
            "NORMAL": 25,
            "POSITION": 24
          },
          "indices": 26,
          "material": 12,
          "mode": 4
        }
      ]
    },
    {
      "primitives": [
        {
          "attributes": {
            "NORMAL": 28,
            "POSITION": 27
          },
          "indices": 29,
          "material": 1,
          "mode": 4
        }
      ]
    },
    {
      "primitives": [
        {
          "attributes": {
            "NORMAL": 31,
            "POSITION": 30
          },
          "indices": 32,
          "material": 3,
          "mode": 4
        }
      ]
    },
    {
      "primitives": [
        {
          "attributes": {
            "NORMAL": 34,
            "POSITION": 33
          },
          "indices": 35,
          "material": 4,
          "mode": 4
        }
      ]
    },
    {
      "primitives": [
        {
          "attributes": {
            "NORMAL": 37,
            "POSITION": 36
          },
          "indices": 38,
          "material": 11,
          "mode": 4
        }
      ]
    }
  ],
  "nodes": [
    {
      "children": [
        1
      ],
      "name": "RootNode (gltf orientation matrix)",
      "rotation": [
        -0.70710678118654746,
        -0,
        -0,
        0.70710678118654757
      ]
    },
    {
      "children": [
        2
      ],
      "name": "RootNode (model correction matrix)"
    },
    {
      "children": [
        3,
        4,
        5,
        6,
        7,
        8,
        9,
        10,
        11,
        12,
        13,
        14,
        15
      ],
      "name": "AmazingMongo14.obj.cleaner.materialmerger.gles"
    },
    {
      "mesh": 0,
      "name": ""
    },
    {
      "mesh": 1,
      "name": ""
    },
    {
      "mesh": 2,
      "name": ""
    },
    {
      "mesh": 3,
      "name": ""
    },
    {
      "mesh": 4,
      "name": ""
    },
    {
      "mesh": 5,
      "name": ""
    },
    {
      "mesh": 6,
      "name": ""
    },
    {
      "mesh": 7,
      "name": ""
    },
    {
      "mesh": 8,
      "name": ""
    },
    {
      "mesh": 9,
      "name": ""
    },
    {
      "mesh": 10,
      "name": ""
    },
    {
      "mesh": 11,
      "name": ""
    },
    {
      "mesh": 12,
      "name": ""
    }
  ],
  "scene": 0,
  "scenes": [
    {
      "name": "OSG_Scene",
      "nodes": [
        0
      ]
    }
  ]
}

