{
  "accessors": [
    {
      "bufferView": 1,
      "componentType": 5126,
      "count": 74,
      "max": [
        0.078024998307228088,
        -0.27123001217842102,
        1.1997610330581665
      ],
      "min": [
        0.015914000570774078,
        -0.55610197782516479,
        1.0742290019989014
      ],
      "type": "VEC3"
    },
    {
      "bufferView": 1,
      "byteOffset": 888,
      "componentType": 5126,
      "count": 74,
      "max": [
        0.9775080680847168,
        0.87954747676849365,
        0.98199063539505005
      ],
      "min": [
        -0.9775080680847168,
        -0.9746285080909729,
        -0.99153536558151245
      ],
      "type": "VEC3"
    },
    {
      "bufferView": 0,
      "componentType": 5125,
      "count": 132,
      "max": [
        73
      ],
      "min": [
        0
      ],
      "type": "SCALAR"
    },
    {
      "bufferView": 1,
      "byteOffset": 1776,
      "componentType": 5126,
      "count": 176,
      "max": [
        0.049017999321222305,
        -0.15415799617767334,
        1.248384952545166
      ],
      "min": [
        -0.020179999992251396,
        -0.29224801063537598,
        1.0672190189361572
      ],
      "type": "VEC3"
    },
    {
      "bufferView": 1,
      "byteOffset": 3888,
      "componentType": 5126,
      "count": 176,
      "max": [
        0.99463993310928345,
        0.9746285080909729,
        0.98472630977630615
      ],
      "min": [
        -0.99431610107421875,
        -0.9746285080909729,
        -0.98472630977630615
      ],
      "type": "VEC3"
    },
    {
      "bufferView": 0,
      "byteOffset": 528,
      "componentType": 5125,
      "count": 240,
      "max": [
        175
      ],
      "min": [
        0
      ],
      "type": "SCALAR"
    },
    {
      "bufferView": 1,
      "byteOffset": 6000,
      "componentType": 5126,
      "count": 24,
      "max": [
        0.3610680103302002,
        -0.081375002861022949,
        1.1085840463638306
      ],
      "min": [
        -0.55004501342773438,
        -0.38655900955200195,
        0.80340099334716797
      ],
      "type": "VEC3"
    },
    {
      "bufferView": 1,
      "byteOffset": 6288,
      "componentType": 5126,
      "count": 24,
      "max": [
        1,
        1,
        1
      ],
      "min": [
        -1,
        -1,
        -1
      ],
      "type": "VEC3"
    },
    {
      "bufferView": 0,
      "byteOffset": 1488,
      "componentType": 5125,
      "count": 36,
      "max": [
        23
      ],
      "min": [
        0
      ],
      "type": "SCALAR"
    },
    {
      "bufferView": 1,
      "byteOffset": 6576,
      "componentType": 5126,
      "count": 24,
      "max": [
        0.79735398292541504,
        0.86618101596832275,
        0.6416509747505188
      ],
      "min": [
        -0.85215198993682861,
        -0.76026302576065063,
        0.071992002427577972
      ],
      "type": "VEC3"
    },
    {
      "bufferView": 1,
      "byteOffset": 6864,
      "componentType": 5126,
      "count": 24,
      "max": [
        1,
        1,
        1
      ],
      "min": [
        -1,
        -1,
        -1
      ],
      "type": "VEC3"
    },
    {
      "bufferView": 0,
      "byteOffset": 1632,
      "componentType": 5125,
      "count": 36,
      "max": [
        23
      ],
      "min": [
        0
      ],
      "type": "SCALAR"
    },
    {
      "bufferView": 1,
      "byteOffset": 7152,
      "componentType": 5126,
      "count": 486,
      "max": [
        0.54269802570343018,
        -0.13498400151729584,
        1.1052219867706299
      ],
      "min": [
        0.34242799878120422,
        -0.35717299580574036,
        0.88303297758102417
      ],
      "type": "VEC3"
    },
    {
      "bufferView": 1,
      "byteOffset": 12984,
      "componentType": 5126,
      "count": 486,
      "max": [
        0.44458657503128052,
        0.9985191822052002,
        0.9985191822052002
      ],
      "min": [
        -0.93817293643951416,
        -0.9985191822052002,
        -0.9985191822052002
      ],
      "type": "VEC3"
    },
    {
      "bufferView": 0,
      "byteOffset": 1776,
      "componentType": 5125,
      "count": 2754,
      "max": [
        485
      ],
      "min": [
        0
      ],
      "type": "SCALAR"
    },
    {
      "bufferView": 1,
      "byteOffset": 18816,
      "componentType": 5126,
      "count": 502,
      "max": [
        0.042642999440431595,
        0.15436699986457825,
        1.3716340065002441
      ],
      "min": [
        -0.34688299894332886,
        -0.1679760068655014,
        1.1013809442520142
      ],
      "type": "VEC3"
    },
    {
      "bufferView": 1,
      "byteOffset": 24840,
      "componentType": 5126,
      "count": 502,
      "max": [
        0.99971765279769897,
        0.99785590171813965,
        0.89253687858581543
      ],
      "min": [
        -0.99971991777420044,
        -0.99785590171813965,
        -0.99767214059829712
      ],
      "type": "VEC3"
    },
    {
      "bufferView": 0,
      "byteOffset": 12792,
      "componentType": 5125,
      "count": 2814,
      "max": [
        501
      ],
      "min": [
        0
      ],
      "type": "SCALAR"
    },
    {
      "bufferView": 1,
      "byteOffset": 30864,
      "componentType": 5126,
      "count": 26,
      "max": [
        0.045402001589536667,
        0.021110000088810921,
        0.53997898101806641
      ],
      "min": [
        -0.034954998642206192,
        -0.04920399934053421,
        0.36933800578117371
      ],
      "type": "VEC3"
    },
    {
      "bufferView": 1,
      "byteOffset": 31176,
      "componentType": 5126,
      "count": 26,
      "max": [
        0.9653925895690918,
        0.76838618516921997,
        0.99888545274734497
      ],
      "min": [
        -0.98076492547988892,
        -0.99996304512023926,
        -0.99937331676483154
      ],
      "type": "VEC3"
    },
    {
      "bufferView": 0,
      "byteOffset": 24048,
      "componentType": 5125,
      "count": 78,
      "max": [
        25
      ],
      "min": [
        0
      ],
      "type": "SCALAR"
    },
    {
      "bufferView": 1,
      "byteOffset": 31488,
      "componentType": 5126,
      "count": 26,
      "max": [
        0.045402001589536667,
        0.021110000088810921,
        0.53997898101806641
      ],
      "min": [
        -0.034954998642206192,
        -0.04920399934053421,
        0.36933800578117371
      ],
      "type": "VEC3"
    },
    {
      "bufferView": 1,
      "byteOffset": 31800,
      "componentType": 5126,
      "count": 26,
      "max": [
        0.9653925895690918,
        0.76838618516921997,
        0.99888545274734497
      ],
      "min": [
        -0.98076492547988892,
        -0.99996304512023926,
        -0.99937331676483154
      ],
      "type": "VEC3"
    },
    {
      "bufferView": 0,
      "byteOffset": 24360,
      "componentType": 5125,
      "count": 78,
      "max": [
        25
      ],
      "min": [
        0
      ],
      "type": "SCALAR"
    },
    {
      "bufferView": 1,
      "byteOffset": 32112,
      "componentType": 5126,
      "count": 26,
      "max": [
        -0.031182000413537025,
        0.11742699891328812,
        1.1830869913101196
      ],
      "min": [
        -0.11163400113582611,
        0.040410000830888748,
        0.99753797054290771
      ],
      "type": "VEC3"
    },
    {
      "bufferView": 1,
      "byteOffset": 32424,
      "componentType": 5126,
      "count": 26,
      "max": [
        0.95539283752441406,
        0.82638651132583618,
        0.96138817071914673
      ],
      "min": [
        -0.96961599588394165,
        -0.98540633916854858,
        -0.96032404899597168
      ],
      "type": "VEC3"
    },
    {
      "bufferView": 0,
      "byteOffset": 24672,
      "componentType": 5125,
      "count": 78,
      "max": [
        25
      ],
      "min": [
        0
      ],
      "type": "SCALAR"
    },
    {
      "bufferView": 1,
      "byteOffset": 32736,
      "componentType": 5126,
      "count": 210,
      "max": [
        0.042642999440431595,
        0.21154999732971191,
        1.5901949405670166
      ],
      "min": [
        -0.32972100377082825,
        -0.13804000616073608,
        0.64387702941894531
      ],
      "type": "VEC3"
    },
    {
      "bufferView": 1,
      "byteOffset": 35256,
      "componentType": 5126,
      "count": 210,
      "max": [
        0.96706819534301758,
        0.90095692873001099,
        0.979145348072052
      ],
      "min": [
        -0.96137338876724243,
        -0.97036665678024292,
        -0.96503472328186035
      ],
      "type": "VEC3"
    },
    {
      "bufferView": 0,
      "byteOffset": 24984,
      "componentType": 5125,
      "count": 1020,
      "max": [
        209
      ],
      "min": [
        0
      ],
      "type": "SCALAR"
    },
    {
      "bufferView": 1,
      "byteOffset": 37776,
      "componentType": 5126,
      "count": 1396,
      "max": [
        0.61545997858047485,
        -0.11367399990558624,
        1.1141489744186401
      ],
      "min": [
        0.36711499094963074,
        -0.36892300844192505,
        0.77875500917434692
      ],
      "type": "VEC3"
    },
    {
      "bufferView": 1,
      "byteOffset": 54528,
      "componentType": 5126,
      "count": 1396,
      "max": [
        1,
        0.99850833415985107,
        0.98605650663375854
      ],
      "min": [
        -1,
        -0.99851381778717041,
        -0.99851381778717041
      ],
      "type": "VEC3"
    },
    {
      "bufferView": 0,
      "byteOffset": 29064,
      "componentType": 5125,
      "count": 7755,
      "max": [
        1395
      ],
      "min": [
        0
      ],
      "type": "SCALAR"
    },
    {
      "bufferView": 1,
      "byteOffset": 71280,
      "componentType": 5126,
      "count": 68,
      "max": [
        1.0330760478973389,
        -0.56390601396560669,
        1.5288289785385132
      ],
      "min": [
        -1.1291099786758423,
        -0.84598499536514282,
        1.2907400131225586
      ],
      "type": "VEC3"
    },
    {
      "bufferView": 1,
      "byteOffset": 72096,
      "componentType": 5126,
      "count": 68,
      "max": [
        1,
        1,
        0.99899595975875854
      ],
      "min": [
        -1,
        -1,
        -0.9975542426109314
      ],
      "type": "VEC3"
    },
    {
      "bufferView": 0,
      "byteOffset": 60084,
      "componentType": 5125,
      "count": 120,
      "max": [
        67
      ],
      "min": [
        0
      ],
      "type": "SCALAR"
    },
    {
      "bufferView": 1,
      "byteOffset": 72912,
      "componentType": 5126,
      "count": 216,
      "max": [
        0.99036300182342529,
        -0.62295997142791748,
        2.5686440467834473
      ],
      "min": [
        -1.0863970518112183,
        -0.77205801010131836,
        0.62056398391723633
      ],
      "type": "VEC3"
    },
    {
      "bufferView": 1,
      "byteOffset": 75504,
      "componentType": 5126,
      "count": 216,
      "max": [
        1,
        1,
        0.99922358989715576
      ],
      "min": [
        -1,
        -1,
        -0.99954086542129517
      ],
      "type": "VEC3"
    },
    {
      "bufferView": 0,
      "byteOffset": 60564,
      "componentType": 5125,
      "count": 480,
      "max": [
        215
      ],
      "min": [
        0
      ],
      "type": "SCALAR"
    }
  ],
  "asset": {
    "extras": {
      "author": "kllewis5 (https://sketchfab.com/kllewis5)",
      "license": "CC-BY-4.0 (http://creativecommons.org/licenses/by/4.0/)",
      "source": "https://sketchfab.com/3d-models/amazing-mongo9-3a07e74a30074986ab7f537d26efea58",
      "title": "Amazing Mongo9"
    },
    "generator": "Sketchfab-9.55.0",
    "version": "2.0"
  },
  "bufferViews": [
    {
      "buffer": 0,
      "byteLength": 62484,
      "byteOffset": 0,
      "name": "floatBufferViews",
      "target": 34963
    },
    {
      "buffer": 0,
      "byteLength": 78096,
      "byteOffset": 62484,
      "byteStride": 12,
      "name": "floatBufferViews",
      "target": 34962
    }
  ],
  "buffers": [
    {
      "byteLength": 140580,
      "uri": "scene.bin"
    }
  ],
  "materials": [
    {
      "doubleSided": true,
      "emissiveFactor": [
        0,
        0,
        0
      ],
      "name": "Material.045",
      "pbrMetallicRoughness": {
        "baseColorFactor": [
          0.18266099999999999,
          0.18266099999999999,
          0.18266099999999999,
          1
        ],
        "metallicFactor": 0,
        "roughnessFactor": 0.84431313707611155
      }
    },
    {
      "doubleSided": true,
      "emissiveFactor": [
        0,
        0,
        0
      ],
      "name": "Material.054",
      "pbrMetallicRoughness": {
        "baseColorFactor": [
          0.64000000000000001,
          0.0042919999999999998,
          0.0095479999999999992,
          1
        ],
        "metallicFactor": 0,
        "roughnessFactor": 0.84514794926587633
      }
    },
    {
      "doubleSided": true,
      "emissiveFactor": [
        0,
        0,
        0
      ],
      "name": "Material.055",
      "pbrMetallicRoughness": {
        "baseColorFactor": [
          0.027373999999999999,
          0.19947400000000001,
          0.64000000000000001,
          1
        ],
        "metallicFactor": 0,
        "roughnessFactor": 0.84514794926587633
      }
    },
    {
      "doubleSided": true,
      "emissiveFactor": [
        0,
        0,
        0
      ],
      "name": "Material.057",
      "pbrMetallicRoughness": {
        "baseColorFactor": [
          0.29011500000000001,
          0.069791000000000006,
          0.020191000000000001,
          1
        ],
        "metallicFactor": 0,
        "roughnessFactor": 0.84514794926587633
      }
    },
    {
      "doubleSided": true,
      "emissiveFactor": [
        0,
        0,
        0
      ],
      "name": "Material.058",
      "pbrMetallicRoughness": {
        "baseColorFactor": [
          0.64000000000000001,
          0.34149400000000002,
          0.043505000000000002,
          1
        ],
        "metallicFactor": 0,
        "roughnessFactor": 0.89057115322794167
      }
    },
    {
      "doubleSided": true,
      "emissiveFactor": [
        0,
        0,
        0
      ],
      "name": "Material.059",
      "pbrMetallicRoughness": {
        "baseColorFactor": [
          0.346024,
          0.0093360000000000005,
          0.0077679999999999997,
          1
        ],
        "metallicFactor": 0,
        "roughnessFactor": 1
      }
    },
    {
      "doubleSided": true,
      "emissiveFactor": [
        0,
        0,
        0
      ],
      "name": "color_11107152mat.026",
      "pbrMetallicRoughness": {
        "baseColorFactor": [
          0.530196,
          0.385882,
          0.25097999999999998,
          1
        ],
        "metallicFactor": 0,
        "roughnessFactor": 1
      }
    },
    {
      "doubleSided": true,
      "emissiveFactor": [
        0,
        0,
        0
      ],
      "name": "color_11107152mat.028",
      "pbrMetallicRoughness": {
        "baseColorFactor": [
          0.530196,
          0.385882,
          0.25097999999999998,
          1
        ],
        "metallicFactor": 0,
        "roughnessFactor": 1
      }
    },
    {
      "doubleSided": true,
      "emissiveFactor": [
        0,
        0,
        0
      ],
      "name": "color_16448250mat.016",
      "pbrMetallicRoughness": {
        "baseColorFactor": [
          0.78431399999999996,
          0.78431399999999996,
          0.78431399999999996,
          1
        ],
        "metallicFactor": 0,
        "roughnessFactor": 1
      }
    },
    {
      "doubleSided": true,
      "emissiveFactor": [
        0,
        0,
        0
      ],
      "name": "color_16448250mat.019",
      "pbrMetallicRoughness": {
        "baseColorFactor": [
          0.78431399999999996,
          0.78431399999999996,
          0.78431399999999996,
          1
        ],
        "metallicFactor": 0,
        "roughnessFactor": 1
      }
    },
    {
      "doubleSided": true,
      "emissiveFactor": [
        0,
        0,
        0
      ],
      "name": "color_16448250mat.020",
      "pbrMetallicRoughness": {
        "baseColorFactor": [
          0.78431399999999996,
          0.78431399999999996,
          0.78431399999999996,
          1
        ],
        "metallicFactor": 0,
        "roughnessFactor": 1
      }
    },
    {
      "doubleSided": true,
      "emissiveFactor": [
        0,
        0,
        0
      ],
      "name": "color_2829873mat.036",
      "pbrMetallicRoughness": {
        "baseColorFactor": [
          0.13490199999999999,
          0.144314,
          0.153725,
          1
        ],
        "metallicFactor": 0,
        "roughnessFactor": 1
      }
    },
    {
      "doubleSided": true,
      "emissiveFactor": [
        0,
        0,
        0
      ],
      "name": "color_2829873mat.037",
      "pbrMetallicRoughness": {
        "baseColorFactor": [
          0.13490199999999999,
          0.144314,
          0.153725,
          1
        ],
        "metallicFactor": 0,
        "roughnessFactor": 1
      }
    }
  ],
  "meshes": [
    {
      "primitives": [
        {
          "attributes": {
            "NORMAL": 1,
            "POSITION": 0
          },
          "indices": 2,
          "material": 0,
          "mode": 4
        }
      ]
    },
    {
      "primitives": [
        {
          "attributes": {
            "NORMAL": 4,
            "POSITION": 3
          },
          "indices": 5,
          "material": 1,
          "mode": 4
        }
      ]
    },
    {
      "primitives": [
        {
          "attributes": {
            "NORMAL": 7,
            "POSITION": 6
          },
          "indices": 8,
          "material": 2,
          "mode": 4
        }
      ]
    },
    {
      "primitives": [
        {
          "attributes": {
            "NORMAL": 10,
            "POSITION": 9
          },
          "indices": 11,
          "material": 3,
          "mode": 4
        }
      ]
    },
    {
      "primitives": [
        {
          "attributes": {
            "NORMAL": 13,
            "POSITION": 12
          },
          "indices": 14,
          "material": 6,
          "mode": 4
        }
      ]
    },
    {
      "primitives": [
        {
          "attributes": {
            "NORMAL": 16,
            "POSITION": 15
          },
          "indices": 17,
          "material": 7,
          "mode": 4
        }
      ]
    },
    {
      "primitives": [
        {
          "attributes": {
            "NORMAL": 19,
            "POSITION": 18
          },
          "indices": 20,
          "material": 8,
          "mode": 4
        }
      ]
    },
    {
      "primitives": [
        {
          "attributes": {
            "NORMAL": 22,
            "POSITION": 21
          },
          "indices": 23,
          "material": 9,
          "mode": 4
        }
      ]
    },
    {
      "primitives": [
        {
          "attributes": {
            "NORMAL": 25,
            "POSITION": 24
          },
          "indices": 26,
          "material": 10,
          "mode": 4
        }
      ]
    },
    {
      "primitives": [
        {
          "attributes": {
            "NORMAL": 28,
            "POSITION": 27
          },
          "indices": 29,
          "material": 11,
          "mode": 4
        }
      ]
    },
    {
      "primitives": [
        {
          "attributes": {
            "NORMAL": 31,
            "POSITION": 30
          },
          "indices": 32,
          "material": 12,
          "mode": 4
        }
      ]
    },
    {
      "primitives": [
        {
          "attributes": {
            "NORMAL": 34,
            "POSITION": 33
          },
          "indices": 35,
          "material": 4,
          "mode": 4
        }
      ]
    },
    {
      "primitives": [
        {
          "attributes": {
            "NORMAL": 37,
            "POSITION": 36
          },
          "indices": 38,
          "material": 5,
          "mode": 4
        }
      ]
    }
  ],
  "nodes": [
    {
      "children": [
        1
      ],
      "name": "RootNode (gltf orientation matrix)",
      "rotation": [
        -0.70710678118654746,
        -0,
        -0,
        0.70710678118654757
      ]
    },
    {
      "children": [
        2
      ],
      "name": "RootNode (model correction matrix)"
    },
    {
      "children": [
        3,
        4,
        5,
        6,
        7,
        8,
        9,
        10,
        11,
        12,
        13,
        14,
        15
      ],
      "name": "AmazingMongo9.obj.cleaner.materialmerger.gles"
    },
    {
      "mesh": 0,
      "name": ""
    },
    {
      "mesh": 1,
      "name": ""
    },
    {
      "mesh": 2,
      "name": ""
    },
    {
      "mesh": 3,
      "name": ""
    },
    {
      "mesh": 4,
      "name": ""
    },
    {
      "mesh": 5,
      "name": ""
    },
    {
      "mesh": 6,
      "name": ""
    },
    {
      "mesh": 7,
      "name": ""
    },
    {
      "mesh": 8,
      "name": ""
    },
    {
      "mesh": 9,
      "name": ""
    },
    {
      "mesh": 10,
      "name": ""
    },
    {
      "mesh": 11,
      "name": ""
    },
    {
      "mesh": 12,
      "name": ""
    }
  ],
  "scene": 0,
  "scenes": [
    {
      "name": "OSG_Scene",
      "nodes": [
        0
      ]
    }
  ]
}

