{
  "accessors": [
    {
      "bufferView": 1,
      "componentType": 5126,
      "count": 176,
      "max": [
        0.32759198546409607,
        0.17420999705791473,
        1.458001971244812
      ],
      "min": [
        0.16778300702571869,
        0.13222199678421021,
        1.2696330547332764
      ],
      "type": "VEC3"
    },
    {
      "bufferView": 1,
      "byteOffset": 2112,
      "componentType": 5126,
      "count": 176,
      "max": [
        0.99227017164230347,
        0.999991774559021,
        0.9843904972076416
      ],
      "min": [
        -0.9922824501991272,
        -0.999991774559021,
        -0.98437321186065674
      ],
      "type": "VEC3"
    },
    {
      "bufferView": 0,
      "componentType": 5125,
      "count": 240,
      "max": [
        175
      ],
      "min": [
        0
      ],
      "type": "SCALAR"
    },
    {
      "bufferView": 1,
      "byteOffset": 4224,
      "componentType": 5126,
      "count": 24,
      "max": [
        0.3610680103302002,
        -0.081375002861022949,
        1.1085840463638306
      ],
      "min": [
        -0.55004501342773438,
        -0.38655900955200195,
        0.80340099334716797
      ],
      "type": "VEC3"
    },
    {
      "bufferView": 1,
      "byteOffset": 4512,
      "componentType": 5126,
      "count": 24,
      "max": [
        1,
        1,
        1
      ],
      "min": [
        -1,
        -1,
        -1
      ],
      "type": "VEC3"
    },
    {
      "bufferView": 0,
      "byteOffset": 960,
      "componentType": 5125,
      "count": 36,
      "max": [
        23
      ],
      "min": [
        0
      ],
      "type": "SCALAR"
    },
    {
      "bufferView": 1,
      "byteOffset": 4800,
      "componentType": 5126,
      "count": 70,
      "max": [
        0.52346700429916382,
        0.15871900320053101,
        1.5605369806289673
      ],
      "min": [
        0.27651199698448181,
        0.14846999943256378,
        1.3413029909133911
      ],
      "type": "VEC3"
    },
    {
      "bufferView": 1,
      "byteOffset": 5640,
      "componentType": 5126,
      "count": 70,
      "max": [
        0.99981564283370972,
        1,
        0.96402633190155029
      ],
      "min": [
        -0.98931378126144409,
        -1,
        -0.8905949592590332
      ],
      "type": "VEC3"
    },
    {
      "bufferView": 0,
      "byteOffset": 1104,
      "componentType": 5125,
      "count": 132,
      "max": [
        69
      ],
      "min": [
        0
      ],
      "type": "SCALAR"
    },
    {
      "bufferView": 1,
      "byteOffset": 6480,
      "componentType": 5126,
      "count": 24,
      "max": [
        0.79735398292541504,
        0.86618101596832275,
        0.6416509747505188
      ],
      "min": [
        -0.85215198993682861,
        -0.76026302576065063,
        0.071992002427577972
      ],
      "type": "VEC3"
    },
    {
      "bufferView": 1,
      "byteOffset": 6768,
      "componentType": 5126,
      "count": 24,
      "max": [
        1,
        1,
        1
      ],
      "min": [
        -1,
        -1,
        -1
      ],
      "type": "VEC3"
    },
    {
      "bufferView": 0,
      "byteOffset": 1632,
      "componentType": 5125,
      "count": 36,
      "max": [
        23
      ],
      "min": [
        0
      ],
      "type": "SCALAR"
    },
    {
      "bufferView": 1,
      "byteOffset": 7056,
      "componentType": 5126,
      "count": 486,
      "max": [
        0.54269802570343018,
        -0.13498400151729584,
        1.1052219867706299
      ],
      "min": [
        0.34242799878120422,
        -0.35717299580574036,
        0.88303297758102417
      ],
      "type": "VEC3"
    },
    {
      "bufferView": 1,
      "byteOffset": 12888,
      "componentType": 5126,
      "count": 486,
      "max": [
        0.44458657503128052,
        0.9985191822052002,
        0.9985191822052002
      ],
      "min": [
        -0.93817293643951416,
        -0.9985191822052002,
        -0.9985191822052002
      ],
      "type": "VEC3"
    },
    {
      "bufferView": 0,
      "byteOffset": 1776,
      "componentType": 5125,
      "count": 2754,
      "max": [
        485
      ],
      "min": [
        0
      ],
      "type": "SCALAR"
    },
    {
      "bufferView": 1,
      "byteOffset": 18720,
      "componentType": 5126,
      "count": 502,
      "max": [
        0.2187809944152832,
        0.19463999569416046,
        1.3633049726486206
      ],
      "min": [
        -0.34688299894332886,
        -0.13291800022125244,
        1.0820809602737427
      ],
      "type": "VEC3"
    },
    {
      "bufferView": 1,
      "byteOffset": 24744,
      "componentType": 5126,
      "count": 502,
      "max": [
        0.99971908330917358,
        0.99971908330917358,
        0.82256853580474854
      ],
      "min": [
        -0.99971908330917358,
        -0.99971908330917358,
        -0.93815487623214722
      ],
      "type": "VEC3"
    },
    {
      "bufferView": 0,
      "byteOffset": 12792,
      "componentType": 5125,
      "count": 2814,
      "max": [
        501
      ],
      "min": [
        0
      ],
      "type": "SCALAR"
    },
    {
      "bufferView": 1,
      "byteOffset": 30768,
      "componentType": 5126,
      "count": 26,
      "max": [
        0.045402001589536667,
        0.021110000088810921,
        0.53997898101806641
      ],
      "min": [
        -0.034954998642206192,
        -0.04920399934053421,
        0.36933800578117371
      ],
      "type": "VEC3"
    },
    {
      "bufferView": 1,
      "byteOffset": 31080,
      "componentType": 5126,
      "count": 26,
      "max": [
        0.9653925895690918,
        0.76838618516921997,
        0.99888545274734497
      ],
      "min": [
        -0.98076492547988892,
        -0.99996304512023926,
        -0.99937331676483154
      ],
      "type": "VEC3"
    },
    {
      "bufferView": 0,
      "byteOffset": 24048,
      "componentType": 5125,
      "count": 78,
      "max": [
        25
      ],
      "min": [
        0
      ],
      "type": "SCALAR"
    },
    {
      "bufferView": 1,
      "byteOffset": 31392,
      "componentType": 5126,
      "count": 26,
      "max": [
        0.045402001589536667,
        0.021110000088810921,
        0.53997898101806641
      ],
      "min": [
        -0.034954998642206192,
        -0.04920399934053421,
        0.36933800578117371
      ],
      "type": "VEC3"
    },
    {
      "bufferView": 1,
      "byteOffset": 31704,
      "componentType": 5126,
      "count": 26,
      "max": [
        0.9653925895690918,
        0.76838618516921997,
        0.99888545274734497
      ],
      "min": [
        -0.98076492547988892,
        -0.99996304512023926,
        -0.99937331676483154
      ],
      "type": "VEC3"
    },
    {
      "bufferView": 0,
      "byteOffset": 24360,
      "componentType": 5125,
      "count": 78,
      "max": [
        25
      ],
      "min": [
        0
      ],
      "type": "SCALAR"
    },
    {
      "bufferView": 1,
      "byteOffset": 32016,
      "componentType": 5126,
      "count": 26,
      "max": [
        -0.031166000291705132,
        0.12212199717760086,
        1.1836589574813843
      ],
      "min": [
        -0.11163400113582611,
        0.040738999843597412,
        1.0132149457931519
      ],
      "type": "VEC3"
    },
    {
      "bufferView": 1,
      "byteOffset": 32328,
      "componentType": 5126,
      "count": 26,
      "max": [
        0.9585157036781311,
        0.82961452007293701,
        0.99957734346389771
      ],
      "min": [
        -0.96961772441864014,
        -0.98859375715255737,
        -0.99937331676483154
      ],
      "type": "VEC3"
    },
    {
      "bufferView": 0,
      "byteOffset": 24672,
      "componentType": 5125,
      "count": 78,
      "max": [
        25
      ],
      "min": [
        0
      ],
      "type": "SCALAR"
    },
    {
      "bufferView": 1,
      "byteOffset": 32640,
      "componentType": 5126,
      "count": 210,
      "max": [
        0.19517600536346436,
        0.21330800652503967,
        1.5933049917221069
      ],
      "min": [
        -0.32971999049186707,
        -0.10925500094890594,
        0.64387702941894531
      ],
      "type": "VEC3"
    },
    {
      "bufferView": 1,
      "byteOffset": 35160,
      "componentType": 5126,
      "count": 210,
      "max": [
        0.96705549955368042,
        0.82901257276535034,
        0.99997782707214355
      ],
      "min": [
        -0.96136534214019775,
        -0.99018216133117676,
        -1
      ],
      "type": "VEC3"
    },
    {
      "bufferView": 0,
      "byteOffset": 24984,
      "componentType": 5125,
      "count": 1020,
      "max": [
        209
      ],
      "min": [
        0
      ],
      "type": "SCALAR"
    },
    {
      "bufferView": 1,
      "byteOffset": 37680,
      "componentType": 5126,
      "count": 1396,
      "max": [
        0.61545997858047485,
        -0.11367399990558624,
        1.1141489744186401
      ],
      "min": [
        0.36711499094963074,
        -0.36892300844192505,
        0.77875500917434692
      ],
      "type": "VEC3"
    },
    {
      "bufferView": 1,
      "byteOffset": 54432,
      "componentType": 5126,
      "count": 1396,
      "max": [
        1,
        0.99850833415985107,
        0.98605650663375854
      ],
      "min": [
        -1,
        -0.99851381778717041,
        -0.99851381778717041
      ],
      "type": "VEC3"
    },
    {
      "bufferView": 0,
      "byteOffset": 29064,
      "componentType": 5125,
      "count": 7755,
      "max": [
        1395
      ],
      "min": [
        0
      ],
      "type": "SCALAR"
    },
    {
      "bufferView": 1,
      "byteOffset": 71184,
      "componentType": 5126,
      "count": 68,
      "max": [
        1.0330760478973389,
        -0.56390601396560669,
        1.5288289785385132
      ],
      "min": [
        -1.1291099786758423,
        -0.84598499536514282,
        1.2907400131225586
      ],
      "type": "VEC3"
    },
    {
      "bufferView": 1,
      "byteOffset": 72000,
      "componentType": 5126,
      "count": 68,
      "max": [
        1,
        1,
        0.99899595975875854
      ],
      "min": [
        -1,
        -1,
        -0.9975542426109314
      ],
      "type": "VEC3"
    },
    {
      "bufferView": 0,
      "byteOffset": 60084,
      "componentType": 5125,
      "count": 120,
      "max": [
        67
      ],
      "min": [
        0
      ],
      "type": "SCALAR"
    },
    {
      "bufferView": 1,
      "byteOffset": 72816,
      "componentType": 5126,
      "count": 216,
      "max": [
        0.99036300182342529,
        -0.62295997142791748,
        2.5686440467834473
      ],
      "min": [
        -1.0863970518112183,
        -0.77205801010131836,
        0.62056398391723633
      ],
      "type": "VEC3"
    },
    {
      "bufferView": 1,
      "byteOffset": 75408,
      "componentType": 5126,
      "count": 216,
      "max": [
        1,
        1,
        0.99922358989715576
      ],
      "min": [
        -1,
        -1,
        -0.99954086542129517
      ],
      "type": "VEC3"
    },
    {
      "bufferView": 0,
      "byteOffset": 60564,
      "componentType": 5125,
      "count": 480,
      "max": [
        215
      ],
      "min": [
        0
      ],
      "type": "SCALAR"
    }
  ],
  "asset": {
    "extras": {
      "author": "kllewis5 (https://sketchfab.com/kllewis5)",
      "license": "CC-BY-4.0 (http://creativecommons.org/licenses/by/4.0/)",
      "source": "https://sketchfab.com/3d-models/amazing-mongo8-86df3755900e4cfc9e5276f7249eb2ac",
      "title": "Amazing Mongo8"
    },
    "generator": "Sketchfab-9.55.0",
    "version": "2.0"
  },
  "bufferViews": [
    {
      "buffer": 0,
      "byteLength": 62484,
      "byteOffset": 0,
      "name": "floatBufferViews",
      "target": 34963
    },
    {
      "buffer": 0,
      "byteLength": 78000,
      "byteOffset": 62484,
      "byteStride": 12,
      "name": "floatBufferViews",
      "target": 34962
    }
  ],
  "buffers": [
    {
      "byteLength": 140484,
      "uri": "scene.bin"
    }
  ],
  "materials": [
    {
      "doubleSided": true,
      "emissiveFactor": [
        0,
        0,
        0
      ],
      "name": "Material.060",
      "pbrMetallicRoughness": {
        "baseColorFactor": [
          0.64000000000000001,
          0.0042919999999999998,
          0.0095479999999999992,
          1
        ],
        "metallicFactor": 0,
        "roughnessFactor": 0.84514794926587633
      }
    },
    {
      "doubleSided": true,
      "emissiveFactor": [
        0,
        0,
        0
      ],
      "name": "Material.061",
      "pbrMetallicRoughness": {
        "baseColorFactor": [
          0.027373999999999999,
          0.19947400000000001,
          0.64000000000000001,
          1
        ],
        "metallicFactor": 0,
        "roughnessFactor": 0.84514794926587633
      }
    },
    {
      "doubleSided": true,
      "emissiveFactor": [
        0,
        0,
        0
      ],
      "name": "Material.062",
      "pbrMetallicRoughness": {
        "baseColorFactor": [
          0.18266099999999999,
          0.18266099999999999,
          0.18266099999999999,
          1
        ],
        "metallicFactor": 0,
        "roughnessFactor": 0.84514794926587633
      }
    },
    {
      "doubleSided": true,
      "emissiveFactor": [
        0,
        0,
        0
      ],
      "name": "Material.063",
      "pbrMetallicRoughness": {
        "baseColorFactor": [
          0.29011500000000001,
          0.069791000000000006,
          0.020191000000000001,
          1
        ],
        "metallicFactor": 0,
        "roughnessFactor": 0.84514794926587633
      }
    },
    {
      "doubleSided": true,
      "emissiveFactor": [
        0,
        0,
        0
      ],
      "name": "Material.064",
      "pbrMetallicRoughness": {
        "baseColorFactor": [
          0.64000000000000001,
          0.34149400000000002,
          0.043505000000000002,
          1
        ],
        "metallicFactor": 0,
        "roughnessFactor": 0.89057115322794167
      }
    },
    {
      "doubleSided": true,
      "emissiveFactor": [
        0,
        0,
        0
      ],
      "name": "Material.065",
      "pbrMetallicRoughness": {
        "baseColorFactor": [
          0.346024,
          0.0093360000000000005,
          0.0077679999999999997,
          1
        ],
        "metallicFactor": 0,
        "roughnessFactor": 1
      }
    },
    {
      "doubleSided": true,
      "emissiveFactor": [
        0,
        0,
        0
      ],
      "name": "color_11107152mat.029",
      "pbrMetallicRoughness": {
        "baseColorFactor": [
          0.530196,
          0.385882,
          0.25097999999999998,
          1
        ],
        "metallicFactor": 0,
        "roughnessFactor": 1
      }
    },
    {
      "doubleSided": true,
      "emissiveFactor": [
        0,
        0,
        0
      ],
      "name": "color_11107152mat.031",
      "pbrMetallicRoughness": {
        "baseColorFactor": [
          0.530196,
          0.385882,
          0.25097999999999998,
          1
        ],
        "metallicFactor": 0,
        "roughnessFactor": 1
      }
    },
    {
      "doubleSided": true,
      "emissiveFactor": [
        0,
        0,
        0
      ],
      "name": "color_16448250mat.014",
      "pbrMetallicRoughness": {
        "baseColorFactor": [
          0.78431399999999996,
          0.78431399999999996,
          0.78431399999999996,
          1
        ],
        "metallicFactor": 0,
        "roughnessFactor": 1
      }
    },
    {
      "doubleSided": true,
      "emissiveFactor": [
        0,
        0,
        0
      ],
      "name": "color_16448250mat.021",
      "pbrMetallicRoughness": {
        "baseColorFactor": [
          0.78431399999999996,
          0.78431399999999996,
          0.78431399999999996,
          1
        ],
        "metallicFactor": 0,
        "roughnessFactor": 1
      }
    },
    {
      "doubleSided": true,
      "emissiveFactor": [
        0,
        0,
        0
      ],
      "name": "color_16448250mat.022",
      "pbrMetallicRoughness": {
        "baseColorFactor": [
          0.78431399999999996,
          0.78431399999999996,
          0.78431399999999996,
          1
        ],
        "metallicFactor": 0,
        "roughnessFactor": 1
      }
    },
    {
      "doubleSided": true,
      "emissiveFactor": [
        0,
        0,
        0
      ],
      "name": "color_2829873mat.040",
      "pbrMetallicRoughness": {
        "baseColorFactor": [
          0.13490199999999999,
          0.144314,
          0.153725,
          1
        ],
        "metallicFactor": 0,
        "roughnessFactor": 1
      }
    },
    {
      "doubleSided": true,
      "emissiveFactor": [
        0,
        0,
        0
      ],
      "name": "color_2829873mat.041",
      "pbrMetallicRoughness": {
        "baseColorFactor": [
          0.13490199999999999,
          0.144314,
          0.153725,
          1
        ],
        "metallicFactor": 0,
        "roughnessFactor": 1
      }
    }
  ],
  "meshes": [
    {
      "primitives": [
        {
          "attributes": {
            "NORMAL": 1,
            "POSITION": 0
          },
          "indices": 2,
          "material": 0,
          "mode": 4
        }
      ]
    },
    {
      "primitives": [
        {
          "attributes": {
            "NORMAL": 4,
            "POSITION": 3
          },
          "indices": 5,
          "material": 1,
          "mode": 4
        }
      ]
    },
    {
      "primitives": [
        {
          "attributes": {
            "NORMAL": 7,
            "POSITION": 6
          },
          "indices": 8,
          "material": 2,
          "mode": 4
        }
      ]
    },
    {
      "primitives": [
        {
          "attributes": {
            "NORMAL": 10,
            "POSITION": 9
          },
          "indices": 11,
          "material": 3,
          "mode": 4
        }
      ]
    },
    {
      "primitives": [
        {
          "attributes": {
            "NORMAL": 13,
            "POSITION": 12
          },
          "indices": 14,
          "material": 6,
          "mode": 4
        }
      ]
    },
    {
      "primitives": [
        {
          "attributes": {
            "NORMAL": 16,
            "POSITION": 15
          },
          "indices": 17,
          "material": 7,
          "mode": 4
        }
      ]
    },
    {
      "primitives": [
        {
          "attributes": {
            "NORMAL": 19,
            "POSITION": 18
          },
          "indices": 20,
          "material": 8,
          "mode": 4
        }
      ]
    },
    {
      "primitives": [
        {
          "attributes": {
            "NORMAL": 22,
            "POSITION": 21
          },
          "indices": 23,
          "material": 9,
          "mode": 4
        }
      ]
    },
    {
      "primitives": [
        {
          "attributes": {
            "NORMAL": 25,
            "POSITION": 24
          },
          "indices": 26,
          "material": 10,
          "mode": 4
        }
      ]
    },
    {
      "primitives": [
        {
          "attributes": {
            "NORMAL": 28,
            "POSITION": 27
          },
          "indices": 29,
          "material": 11,
          "mode": 4
        }
      ]
    },
    {
      "primitives": [
        {
          "attributes": {
            "NORMAL": 31,
            "POSITION": 30
          },
          "indices": 32,
          "material": 12,
          "mode": 4
        }
      ]
    },
    {
      "primitives": [
        {
          "attributes": {
            "NORMAL": 34,
            "POSITION": 33
          },
          "indices": 35,
          "material": 4,
          "mode": 4
        }
      ]
    },
    {
      "primitives": [
        {
          "attributes": {
            "NORMAL": 37,
            "POSITION": 36
          },
          "indices": 38,
          "material": 5,
          "mode": 4
        }
      ]
    }
  ],
  "nodes": [
    {
      "children": [
        1
      ],
      "name": "RootNode (gltf orientation matrix)",
      "rotation": [
        -0.70710678118654746,
        -0,
        -0,
        0.70710678118654757
      ]
    },
    {
      "children": [
        2
      ],
      "name": "RootNode (model correction matrix)"
    },
    {
      "children": [
        3,
        4,
        5,
        6,
        7,
        8,
        9,
        10,
        11,
        12,
        13,
        14,
        15
      ],
      "name": "AmazingMongo8.obj.cleaner.materialmerger.gles"
    },
    {
      "mesh": 0,
      "name": ""
    },
    {
      "mesh": 1,
      "name": ""
    },
    {
      "mesh": 2,
      "name": ""
    },
    {
      "mesh": 3,
      "name": ""
    },
    {
      "mesh": 4,
      "name": ""
    },
    {
      "mesh": 5,
      "name": ""
    },
    {
      "mesh": 6,
      "name": ""
    },
    {
      "mesh": 7,
      "name": ""
    },
    {
      "mesh": 8,
      "name": ""
    },
    {
      "mesh": 9,
      "name": ""
    },
    {
      "mesh": 10,
      "name": ""
    },
    {
      "mesh": 11,
      "name": ""
    },
    {
      "mesh": 12,
      "name": ""
    }
  ],
  "scene": 0,
  "scenes": [
    {
      "name": "OSG_Scene",
      "nodes": [
        0
      ]
    }
  ]
}

