{
  "accessors": [
    {
      "bufferView": 1,
      "componentType": 5126,
      "count": 24,
      "max": [
        0.79735398292541504,
        0.86618101596832275,
        0.6416509747505188
      ],
      "min": [
        -0.85215198993682861,
        -0.76026302576065063,
        0.071992002427577972
      ],
      "type": "VEC3"
    },
    {
      "bufferView": 1,
      "byteOffset": 288,
      "componentType": 5126,
      "count": 24,
      "max": [
        1,
        1,
        1
      ],
      "min": [
        -1,
        -1,
        -1
      ],
      "type": "VEC3"
    },
    {
      "bufferView": 0,
      "componentType": 5125,
      "count": 36,
      "max": [
        23
      ],
      "min": [
        0
      ],
      "type": "SCALAR"
    },
    {
      "bufferView": 1,
      "byteOffset": 576,
      "componentType": 5126,
      "count": 502,
      "max": [
        0.18452699482440948,
        -0.39770698547363281,
        1.3752889633178711
      ],
      "min": [
        -0.34912499785423279,
        -0.61124902963638306,
        1.1829409599304199
      ],
      "type": "VEC3"
    },
    {
      "bufferView": 1,
      "byteOffset": 6600,
      "componentType": 5126,
      "count": 502,
      "max": [
        0.99971908330917358,
        0.9996153712272644,
        0.90080952644348145
      ],
      "min": [
        -0.99971908330917358,
        -0.9996153712272644,
        -0.94299745559692383
      ],
      "type": "VEC3"
    },
    {
      "bufferView": 0,
      "byteOffset": 144,
      "componentType": 5125,
      "count": 2814,
      "max": [
        501
      ],
      "min": [
        0
      ],
      "type": "SCALAR"
    },
    {
      "bufferView": 1,
      "byteOffset": 12624,
      "componentType": 5126,
      "count": 486,
      "max": [
        0.54269802570343018,
        -0.13498400151729584,
        1.1052219867706299
      ],
      "min": [
        0.34242799878120422,
        -0.35717299580574036,
        0.88303297758102417
      ],
      "type": "VEC3"
    },
    {
      "bufferView": 1,
      "byteOffset": 18456,
      "componentType": 5126,
      "count": 486,
      "max": [
        0.44458657503128052,
        0.9985191822052002,
        0.9985191822052002
      ],
      "min": [
        -0.93817293643951416,
        -0.9985191822052002,
        -0.9985191822052002
      ],
      "type": "VEC3"
    },
    {
      "bufferView": 0,
      "byteOffset": 11400,
      "componentType": 5125,
      "count": 2754,
      "max": [
        485
      ],
      "min": [
        0
      ],
      "type": "SCALAR"
    },
    {
      "bufferView": 1,
      "byteOffset": 24288,
      "componentType": 5126,
      "count": 26,
      "max": [
        -0.031252000480890274,
        -0.46745100617408752,
        1.183635950088501
      ],
      "min": [
        -0.11163400113582611,
        -0.54967600107192993,
        1.0124930143356323
      ],
      "type": "VEC3"
    },
    {
      "bufferView": 1,
      "byteOffset": 24600,
      "componentType": 5126,
      "count": 26,
      "max": [
        0.959400475025177,
        0.83578222990036011,
        0.99975484609603882
      ],
      "min": [
        -0.96961402893066406,
        -0.9875597357749939,
        -0.99935638904571533
      ],
      "type": "VEC3"
    },
    {
      "bufferView": 0,
      "byteOffset": 22416,
      "componentType": 5125,
      "count": 78,
      "max": [
        25
      ],
      "min": [
        0
      ],
      "type": "SCALAR"
    },
    {
      "bufferView": 1,
      "byteOffset": 24912,
      "componentType": 5126,
      "count": 26,
      "max": [
        0.045402001589536667,
        0.021110000088810921,
        0.53997898101806641
      ],
      "min": [
        -0.034954998642206192,
        -0.04920399934053421,
        0.36933800578117371
      ],
      "type": "VEC3"
    },
    {
      "bufferView": 1,
      "byteOffset": 25224,
      "componentType": 5126,
      "count": 26,
      "max": [
        0.9653925895690918,
        0.76838618516921997,
        0.99888545274734497
      ],
      "min": [
        -0.98076492547988892,
        -0.99996304512023926,
        -0.99937331676483154
      ],
      "type": "VEC3"
    },
    {
      "bufferView": 0,
      "byteOffset": 22728,
      "componentType": 5125,
      "count": 78,
      "max": [
        25
      ],
      "min": [
        0
      ],
      "type": "SCALAR"
    },
    {
      "bufferView": 1,
      "byteOffset": 25536,
      "componentType": 5126,
      "count": 26,
      "max": [
        0.045402001589536667,
        0.021110000088810921,
        0.53997898101806641
      ],
      "min": [
        -0.034954998642206192,
        -0.04920399934053421,
        0.36933800578117371
      ],
      "type": "VEC3"
    },
    {
      "bufferView": 1,
      "byteOffset": 25848,
      "componentType": 5126,
      "count": 26,
      "max": [
        0.9653925895690918,
        0.76838618516921997,
        0.99888545274734497
      ],
      "min": [
        -0.98076492547988892,
        -0.99996304512023926,
        -0.99937331676483154
      ],
      "type": "VEC3"
    },
    {
      "bufferView": 0,
      "byteOffset": 23040,
      "componentType": 5125,
      "count": 78,
      "max": [
        25
      ],
      "min": [
        0
      ],
      "type": "SCALAR"
    },
    {
      "bufferView": 1,
      "byteOffset": 26160,
      "componentType": 5126,
      "count": 1396,
      "max": [
        0.61545997858047485,
        -0.11367399990558624,
        1.1141489744186401
      ],
      "min": [
        0.36711499094963074,
        -0.36892300844192505,
        0.77875500917434692
      ],
      "type": "VEC3"
    },
    {
      "bufferView": 1,
      "byteOffset": 42912,
      "componentType": 5126,
      "count": 1396,
      "max": [
        1,
        0.99850833415985107,
        0.98605650663375854
      ],
      "min": [
        -1,
        -0.99851381778717041,
        -0.99851381778717041
      ],
      "type": "VEC3"
    },
    {
      "bufferView": 0,
      "byteOffset": 23352,
      "componentType": 5125,
      "count": 7755,
      "max": [
        1395
      ],
      "min": [
        0
      ],
      "type": "SCALAR"
    },
    {
      "bufferView": 1,
      "byteOffset": 59664,
      "componentType": 5126,
      "count": 210,
      "max": [
        0.16540899872779846,
        -0.37975901365280151,
        1.5943640470504761
      ],
      "min": [
        -0.3304390013217926,
        -0.6174430251121521,
        0.64387702941894531
      ],
      "type": "VEC3"
    },
    {
      "bufferView": 1,
      "byteOffset": 62184,
      "componentType": 5126,
      "count": 210,
      "max": [
        0.96700459718704224,
        0.81779831647872925,
        0.99979704618453979
      ],
      "min": [
        -0.96130013465881348,
        -0.98890036344528198,
        -0.99991369247436523
      ],
      "type": "VEC3"
    },
    {
      "bufferView": 0,
      "byteOffset": 54372,
      "componentType": 5125,
      "count": 1020,
      "max": [
        209
      ],
      "min": [
        0
      ],
      "type": "SCALAR"
    },
    {
      "bufferView": 1,
      "byteOffset": 64704,
      "componentType": 5126,
      "count": 48,
      "max": [
        0.36557000875473022,
        -0.081375002861022949,
        1.1085840463638306
      ],
      "min": [
        -0.52171599864959717,
        -0.38655900955200195,
        0.80340099334716797
      ],
      "type": "VEC3"
    },
    {
      "bufferView": 1,
      "byteOffset": 65280,
      "componentType": 5126,
      "count": 48,
      "max": [
        1,
        1,
        1
      ],
      "min": [
        -1,
        -1,
        -1
      ],
      "type": "VEC3"
    },
    {
      "bufferView": 0,
      "byteOffset": 58452,
      "componentType": 5125,
      "count": 72,
      "max": [
        47
      ],
      "min": [
        0
      ],
      "type": "SCALAR"
    },
    {
      "bufferView": 1,
      "byteOffset": 65856,
      "componentType": 5126,
      "count": 68,
      "max": [
        1.0330760478973389,
        -0.56390601396560669,
        1.5288289785385132
      ],
      "min": [
        -1.1291099786758423,
        -0.84598499536514282,
        1.2907400131225586
      ],
      "type": "VEC3"
    },
    {
      "bufferView": 1,
      "byteOffset": 66672,
      "componentType": 5126,
      "count": 68,
      "max": [
        1,
        1,
        0.99899595975875854
      ],
      "min": [
        -1,
        -1,
        -0.9975542426109314
      ],
      "type": "VEC3"
    },
    {
      "bufferView": 0,
      "byteOffset": 58740,
      "componentType": 5125,
      "count": 120,
      "max": [
        67
      ],
      "min": [
        0
      ],
      "type": "SCALAR"
    },
    {
      "bufferView": 1,
      "byteOffset": 67488,
      "componentType": 5126,
      "count": 216,
      "max": [
        0.99036300182342529,
        -0.62295997142791748,
        2.5686440467834473
      ],
      "min": [
        -1.0863970518112183,
        -0.77205801010131836,
        0.62056398391723633
      ],
      "type": "VEC3"
    },
    {
      "bufferView": 1,
      "byteOffset": 70080,
      "componentType": 5126,
      "count": 216,
      "max": [
        1,
        1,
        0.99922358989715576
      ],
      "min": [
        -1,
        -1,
        -0.99954086542129517
      ],
      "type": "VEC3"
    },
    {
      "bufferView": 0,
      "byteOffset": 59220,
      "componentType": 5125,
      "count": 480,
      "max": [
        215
      ],
      "min": [
        0
      ],
      "type": "SCALAR"
    }
  ],
  "asset": {
    "extras": {
      "author": "kllewis5 (https://sketchfab.com/kllewis5)",
      "license": "CC-BY-4.0 (http://creativecommons.org/licenses/by/4.0/)",
      "source": "https://sketchfab.com/3d-models/amazing-mongo12-63c36cc42af94bf992db6b4541156835",
      "title": "Amazing Mongo12"
    },
    "generator": "Sketchfab-9.55.0",
    "version": "2.0"
  },
  "bufferViews": [
    {
      "buffer": 0,
      "byteLength": 61140,
      "byteOffset": 0,
      "name": "floatBufferViews",
      "target": 34963
    },
    {
      "buffer": 0,
      "byteLength": 72672,
      "byteOffset": 61140,
      "byteStride": 12,
      "name": "floatBufferViews",
      "target": 34962
    }
  ],
  "buffers": [
    {
      "byteLength": 133812,
      "uri": "scene.bin"
    }
  ],
  "materials": [
    {
      "doubleSided": true,
      "emissiveFactor": [
        0,
        0,
        0
      ],
      "name": "Material.119",
      "pbrMetallicRoughness": {
        "baseColorFactor": [
          0.027373999999999999,
          0.19947400000000001,
          0.64000000000000001,
          1
        ],
        "metallicFactor": 0,
        "roughnessFactor": 0.84514794926587633
      }
    },
    {
      "doubleSided": true,
      "emissiveFactor": [
        0,
        0,
        0
      ],
      "name": "Material.121",
      "pbrMetallicRoughness": {
        "baseColorFactor": [
          0.29011500000000001,
          0.069791000000000006,
          0.020191000000000001,
          1
        ],
        "metallicFactor": 0,
        "roughnessFactor": 0.84514794926587633
      }
    },
    {
      "doubleSided": true,
      "emissiveFactor": [
        0,
        0,
        0
      ],
      "name": "Material.122",
      "pbrMetallicRoughness": {
        "baseColorFactor": [
          0.64000000000000001,
          0.34149400000000002,
          0.043505000000000002,
          1
        ],
        "metallicFactor": 0,
        "roughnessFactor": 0.89057115322794167
      }
    },
    {
      "doubleSided": true,
      "emissiveFactor": [
        0,
        0,
        0
      ],
      "name": "Material.123",
      "pbrMetallicRoughness": {
        "baseColorFactor": [
          0.346024,
          0.0093360000000000005,
          0.0077679999999999997,
          1
        ],
        "metallicFactor": 0,
        "roughnessFactor": 1
      }
    },
    {
      "doubleSided": true,
      "emissiveFactor": [
        0,
        0,
        0
      ],
      "name": "color_11107152mat.024",
      "pbrMetallicRoughness": {
        "baseColorFactor": [
          0.530196,
          0.385882,
          0.25097999999999998,
          1
        ],
        "metallicFactor": 0,
        "roughnessFactor": 1
      }
    },
    {
      "doubleSided": true,
      "emissiveFactor": [
        0,
        0,
        0
      ],
      "name": "color_11107152mat.027",
      "pbrMetallicRoughness": {
        "baseColorFactor": [
          0.530196,
          0.385882,
          0.25097999999999998,
          1
        ],
        "metallicFactor": 0,
        "roughnessFactor": 1
      }
    },
    {
      "doubleSided": true,
      "emissiveFactor": [
        0,
        0,
        0
      ],
      "name": "color_16448250mat.031",
      "pbrMetallicRoughness": {
        "baseColorFactor": [
          0.78431399999999996,
          0.78431399999999996,
          0.78431399999999996,
          1
        ],
        "metallicFactor": 0,
        "roughnessFactor": 1
      }
    },
    {
      "doubleSided": true,
      "emissiveFactor": [
        0,
        0,
        0
      ],
      "name": "color_16448250mat.032",
      "pbrMetallicRoughness": {
        "baseColorFactor": [
          0.78431399999999996,
          0.78431399999999996,
          0.78431399999999996,
          1
        ],
        "metallicFactor": 0,
        "roughnessFactor": 1
      }
    },
    {
      "doubleSided": true,
      "emissiveFactor": [
        0,
        0,
        0
      ],
      "name": "color_16448250mat.034",
      "pbrMetallicRoughness": {
        "baseColorFactor": [
          0.78431399999999996,
          0.78431399999999996,
          0.78431399999999996,
          1
        ],
        "metallicFactor": 0,
        "roughnessFactor": 1
      }
    },
    {
      "doubleSided": true,
      "emissiveFactor": [
        0,
        0,
        0
      ],
      "name": "color_2829873mat.034",
      "pbrMetallicRoughness": {
        "baseColorFactor": [
          0.13490199999999999,
          0.144314,
          0.153725,
          1
        ],
        "metallicFactor": 0,
        "roughnessFactor": 1
      }
    },
    {
      "doubleSided": true,
      "emissiveFactor": [
        0,
        0,
        0
      ],
      "name": "color_2829873mat.035",
      "pbrMetallicRoughness": {
        "baseColorFactor": [
          0.13490199999999999,
          0.144314,
          0.153725,
          1
        ],
        "metallicFactor": 0,
        "roughnessFactor": 1
      }
    }
  ],
  "meshes": [
    {
      "primitives": [
        {
          "attributes": {
            "NORMAL": 1,
            "POSITION": 0
          },
          "indices": 2,
          "material": 1,
          "mode": 4
        }
      ]
    },
    {
      "primitives": [
        {
          "attributes": {
            "NORMAL": 4,
            "POSITION": 3
          },
          "indices": 5,
          "material": 4,
          "mode": 4
        }
      ]
    },
    {
      "primitives": [
        {
          "attributes": {
            "NORMAL": 7,
            "POSITION": 6
          },
          "indices": 8,
          "material": 5,
          "mode": 4
        }
      ]
    },
    {
      "primitives": [
        {
          "attributes": {
            "NORMAL": 10,
            "POSITION": 9
          },
          "indices": 11,
          "material": 6,
          "mode": 4
        }
      ]
    },
    {
      "primitives": [
        {
          "attributes": {
            "NORMAL": 13,
            "POSITION": 12
          },
          "indices": 14,
          "material": 7,
          "mode": 4
        }
      ]
    },
    {
      "primitives": [
        {
          "attributes": {
            "NORMAL": 16,
            "POSITION": 15
          },
          "indices": 17,
          "material": 8,
          "mode": 4
        }
      ]
    },
    {
      "primitives": [
        {
          "attributes": {
            "NORMAL": 19,
            "POSITION": 18
          },
          "indices": 20,
          "material": 9,
          "mode": 4
        }
      ]
    },
    {
      "primitives": [
        {
          "attributes": {
            "NORMAL": 22,
            "POSITION": 21
          },
          "indices": 23,
          "material": 10,
          "mode": 4
        }
      ]
    },
    {
      "primitives": [
        {
          "attributes": {
            "NORMAL": 25,
            "POSITION": 24
          },
          "indices": 26,
          "material": 0,
          "mode": 4
        }
      ]
    },
    {
      "primitives": [
        {
          "attributes": {
            "NORMAL": 28,
            "POSITION": 27
          },
          "indices": 29,
          "material": 2,
          "mode": 4
        }
      ]
    },
    {
      "primitives": [
        {
          "attributes": {
            "NORMAL": 31,
            "POSITION": 30
          },
          "indices": 32,
          "material": 3,
          "mode": 4
        }
      ]
    }
  ],
  "nodes": [
    {
      "children": [
        1
      ],
      "name": "RootNode (gltf orientation matrix)",
      "rotation": [
        -0.70710678118654746,
        -0,
        -0,
        0.70710678118654757
      ]
    },
    {
      "children": [
        2
      ],
      "name": "RootNode (model correction matrix)"
    },
    {
      "children": [
        3,
        4,
        5,
        6,
        7,
        8,
        9,
        10,
        11,
        12,
        13
      ],
      "name": "AmazingMongo12.obj.cleaner.materialmerger.gles"
    },
    {
      "mesh": 0,
      "name": ""
    },
    {
      "mesh": 1,
      "name": ""
    },
    {
      "mesh": 2,
      "name": ""
    },
    {
      "mesh": 3,
      "name": ""
    },
    {
      "mesh": 4,
      "name": ""
    },
    {
      "mesh": 5,
      "name": ""
    },
    {
      "mesh": 6,
      "name": ""
    },
    {
      "mesh": 7,
      "name": ""
    },
    {
      "mesh": 8,
      "name": ""
    },
    {
      "mesh": 9,
      "name": ""
    },
    {
      "mesh": 10,
      "name": ""
    }
  ],
  "scene": 0,
  "scenes": [
    {
      "name": "OSG_Scene",
      "nodes": [
        0
      ]
    }
  ]
}

