{
  "accessors": [
    {
      "bufferView": 1,
      "componentType": 5126,
      "count": 24,
      "max": [
        0.3610680103302002,
        -0.081375002861022949,
        1.1085840463638306
      ],
      "min": [
        -0.55004501342773438,
        -0.38655900955200195,
        0.80340099334716797
      ],
      "type": "VEC3"
    },
    {
      "bufferView": 1,
      "byteOffset": 288,
      "componentType": 5126,
      "count": 24,
      "max": [
        1,
        1,
        1
      ],
      "min": [
        -1,
        -1,
        -1
      ],
      "type": "VEC3"
    },
    {
      "bufferView": 0,
      "componentType": 5125,
      "count": 36,
      "max": [
        23
      ],
      "min": [
        0
      ],
      "type": "SCALAR"
    },
    {
      "bufferView": 1,
      "byteOffset": 576,
      "componentType": 5126,
      "count": 24,
      "max": [
        0.79735398292541504,
        0.86618101596832275,
        0.6416509747505188
      ],
      "min": [
        -0.85215198993682861,
        -0.76026302576065063,
        0.071992002427577972
      ],
      "type": "VEC3"
    },
    {
      "bufferView": 1,
      "byteOffset": 864,
      "componentType": 5126,
      "count": 24,
      "max": [
        1,
        1,
        1
      ],
      "min": [
        -1,
        -1,
        -1
      ],
      "type": "VEC3"
    },
    {
      "bufferView": 0,
      "byteOffset": 144,
      "componentType": 5125,
      "count": 36,
      "max": [
        23
      ],
      "min": [
        0
      ],
      "type": "SCALAR"
    },
    {
      "bufferView": 1,
      "byteOffset": 1152,
      "componentType": 5126,
      "count": 502,
      "max": [
        -0.10856500267982483,
        -0.25754299759864807,
        1.3633049726486206
      ],
      "min": [
        -0.49333599209785461,
        -0.79930299520492554,
        1.1127519607543945
      ],
      "type": "VEC3"
    },
    {
      "bufferView": 1,
      "byteOffset": 7176,
      "componentType": 5126,
      "count": 502,
      "max": [
        0.99975579977035522,
        0.99975579977035522,
        0.70741856098175049
      ],
      "min": [
        -0.99975579977035522,
        -0.99975579977035522,
        -0.93815517425537109
      ],
      "type": "VEC3"
    },
    {
      "bufferView": 0,
      "byteOffset": 288,
      "componentType": 5125,
      "count": 2814,
      "max": [
        501
      ],
      "min": [
        0
      ],
      "type": "SCALAR"
    },
    {
      "bufferView": 1,
      "byteOffset": 13200,
      "componentType": 5126,
      "count": 502,
      "max": [
        0.60386502742767334,
        -0.084412999451160431,
        1.3744479417800903
      ],
      "min": [
        0.22569100558757782,
        -0.37461200356483459,
        1.1004829406738281
      ],
      "type": "VEC3"
    },
    {
      "bufferView": 1,
      "byteOffset": 19224,
      "componentType": 5126,
      "count": 502,
      "max": [
        0.99909645318984985,
        0.99909645318984985,
        0.71992278099060059
      ],
      "min": [
        -0.99909645318984985,
        -0.99909645318984985,
        -0.93813395500183105
      ],
      "type": "VEC3"
    },
    {
      "bufferView": 0,
      "byteOffset": 11544,
      "componentType": 5125,
      "count": 2814,
      "max": [
        501
      ],
      "min": [
        0
      ],
      "type": "SCALAR"
    },
    {
      "bufferView": 1,
      "byteOffset": 25248,
      "componentType": 5126,
      "count": 26,
      "max": [
        0.52230501174926758,
        -0.21994900703430176,
        1.1952699422836304
      ],
      "min": [
        0.45241698622703552,
        -0.30735298991203308,
        1.0243580341339111
      ],
      "type": "VEC3"
    },
    {
      "bufferView": 1,
      "byteOffset": 25560,
      "componentType": 5126,
      "count": 26,
      "max": [
        0.69767224788665771,
        0.9798583984375,
        0.99887877702713013
      ],
      "min": [
        -0.98836284875869751,
        -0.96367979049682617,
        -0.99937212467193604
      ],
      "type": "VEC3"
    },
    {
      "bufferView": 0,
      "byteOffset": 22800,
      "componentType": 5125,
      "count": 78,
      "max": [
        25
      ],
      "min": [
        0
      ],
      "type": "SCALAR"
    },
    {
      "bufferView": 1,
      "byteOffset": 25872,
      "componentType": 5126,
      "count": 26,
      "max": [
        -0.32491099834442139,
        -0.46247801184654236,
        1.1843290328979492
      ],
      "min": [
        -0.39057299494743347,
        -0.56860601902008057,
        1.0132149457931519
      ],
      "type": "VEC3"
    },
    {
      "bufferView": 1,
      "byteOffset": 26184,
      "componentType": 5126,
      "count": 26,
      "max": [
        0.97179561853408813,
        0.983681321144104,
        0.99887841939926147
      ],
      "min": [
        -0.72321832180023193,
        -0.95652836561203003,
        -0.99937820434570312
      ],
      "type": "VEC3"
    },
    {
      "bufferView": 0,
      "byteOffset": 23112,
      "componentType": 5125,
      "count": 78,
      "max": [
        25
      ],
      "min": [
        0
      ],
      "type": "SCALAR"
    },
    {
      "bufferView": 1,
      "byteOffset": 26496,
      "componentType": 5126,
      "count": 84,
      "max": [
        0.56741201877593994,
        -0.090548001229763031,
        1.2073709964752197
      ],
      "min": [
        0.2551330029964447,
        -0.37461200356483459,
        0.65501999855041504
      ],
      "type": "VEC3"
    },
    {
      "bufferView": 1,
      "byteOffset": 27504,
      "componentType": 5126,
      "count": 84,
      "max": [
        0.81731134653091431,
        0.98681682348251343,
        0.99999845027923584
      ],
      "min": [
        -0.99995625019073486,
        -0.97448164224624634,
        -0.90867006778717041
      ],
      "type": "VEC3"
    },
    {
      "bufferView": 0,
      "byteOffset": 23424,
      "componentType": 5125,
      "count": 399,
      "max": [
        83
      ],
      "min": [
        0
      ],
      "type": "SCALAR"
    },
    {
      "bufferView": 1,
      "byteOffset": 28512,
      "componentType": 5126,
      "count": 1396,
      "max": [
        0.697579026222229,
        -0.14248399436473846,
        1.4398460388183594
      ],
      "min": [
        0.39526298642158508,
        -0.37193700671195984,
        1.2166359424591064
      ],
      "type": "VEC3"
    },
    {
      "bufferView": 1,
      "byteOffset": 45264,
      "componentType": 5126,
      "count": 1396,
      "max": [
        0.99909645318984985,
        0.99909645318984985,
        1
      ],
      "min": [
        -0.98974072933197021,
        -0.99909645318984985,
        -1
      ],
      "type": "VEC3"
    },
    {
      "bufferView": 0,
      "byteOffset": 25020,
      "componentType": 5125,
      "count": 7755,
      "max": [
        1395
      ],
      "min": [
        0
      ],
      "type": "SCALAR"
    },
    {
      "bufferView": 1,
      "byteOffset": 62016,
      "componentType": 5126,
      "count": 210,
      "max": [
        -0.12531599402427673,
        -0.27831500768661499,
        1.5933049917221069
      ],
      "min": [
        -0.514739990234375,
        -0.77943098545074463,
        0.63581901788711548
      ],
      "type": "VEC3"
    },
    {
      "bufferView": 1,
      "byteOffset": 64536,
      "componentType": 5126,
      "count": 210,
      "max": [
        0.96312206983566284,
        0.89551407098770142,
        0.9999997615814209
      ],
      "min": [
        -0.93470805883407593,
        -0.95516997575759888,
        -1
      ],
      "type": "VEC3"
    },
    {
      "bufferView": 0,
      "byteOffset": 56040,
      "componentType": 5125,
      "count": 1020,
      "max": [
        209
      ],
      "min": [
        0
      ],
      "type": "SCALAR"
    },
    {
      "bufferView": 1,
      "byteOffset": 67056,
      "componentType": 5126,
      "count": 216,
      "max": [
        0.99036300182342529,
        -0.62295997142791748,
        2.5686440467834473
      ],
      "min": [
        -1.0863970518112183,
        -0.77205801010131836,
        0.62056398391723633
      ],
      "type": "VEC3"
    },
    {
      "bufferView": 1,
      "byteOffset": 69648,
      "componentType": 5126,
      "count": 216,
      "max": [
        1,
        1,
        0.99922358989715576
      ],
      "min": [
        -1,
        -1,
        -0.99954086542129517
      ],
      "type": "VEC3"
    },
    {
      "bufferView": 0,
      "byteOffset": 60120,
      "componentType": 5125,
      "count": 480,
      "max": [
        215
      ],
      "min": [
        0
      ],
      "type": "SCALAR"
    },
    {
      "bufferView": 1,
      "byteOffset": 72240,
      "componentType": 5126,
      "count": 68,
      "max": [
        1.0330760478973389,
        -0.56390601396560669,
        1.5288289785385132
      ],
      "min": [
        -1.1291099786758423,
        -0.84598499536514282,
        1.2907400131225586
      ],
      "type": "VEC3"
    },
    {
      "bufferView": 1,
      "byteOffset": 73056,
      "componentType": 5126,
      "count": 68,
      "max": [
        1,
        1,
        0.99899595975875854
      ],
      "min": [
        -1,
        -1,
        -0.9975542426109314
      ],
      "type": "VEC3"
    },
    {
      "bufferView": 0,
      "byteOffset": 62040,
      "componentType": 5125,
      "count": 120,
      "max": [
        67
      ],
      "min": [
        0
      ],
      "type": "SCALAR"
    }
  ],
  "asset": {
    "extras": {
      "author": "kllewis5 (https://sketchfab.com/kllewis5)",
      "license": "CC-BY-4.0 (http://creativecommons.org/licenses/by/4.0/)",
      "source": "https://sketchfab.com/3d-models/amazing-mongo6-9b2e4fa5ded044809baacdf852a302e1",
      "title": "Amazing Mongo6"
    },
    "generator": "Sketchfab-9.55.0",
    "version": "2.0"
  },
  "bufferViews": [
    {
      "buffer": 0,
      "byteLength": 62520,
      "byteOffset": 0,
      "name": "floatBufferViews",
      "target": 34963
    },
    {
      "buffer": 0,
      "byteLength": 73872,
      "byteOffset": 62520,
      "byteStride": 12,
      "name": "floatBufferViews",
      "target": 34962
    }
  ],
  "buffers": [
    {
      "byteLength": 136392,
      "uri": "scene.bin"
    }
  ],
  "materials": [
    {
      "doubleSided": true,
      "emissiveFactor": [
        0,
        0,
        0
      ],
      "name": "Material.035",
      "pbrMetallicRoughness": {
        "baseColorFactor": [
          0.346024,
          0.0093360000000000005,
          0.0077679999999999997,
          1
        ],
        "metallicFactor": 0,
        "roughnessFactor": 1
      }
    },
    {
      "doubleSided": true,
      "emissiveFactor": [
        0,
        0,
        0
      ],
      "name": "Material.036",
      "pbrMetallicRoughness": {
        "baseColorFactor": [
          0.027373999999999999,
          0.19947400000000001,
          0.64000000000000001,
          1
        ],
        "metallicFactor": 0,
        "roughnessFactor": 0.84431313707611155
      }
    },
    {
      "doubleSided": true,
      "emissiveFactor": [
        0,
        0,
        0
      ],
      "name": "Material.037",
      "pbrMetallicRoughness": {
        "baseColorFactor": [
          0.64000000000000001,
          0.34149400000000002,
          0.043505000000000002,
          1
        ],
        "metallicFactor": 0,
        "roughnessFactor": 0.88998121893411652
      }
    },
    {
      "doubleSided": true,
      "emissiveFactor": [
        0,
        0,
        0
      ],
      "name": "Material.038",
      "pbrMetallicRoughness": {
        "baseColorFactor": [
          0.29011500000000001,
          0.069791000000000006,
          0.020191000000000001,
          1
        ],
        "metallicFactor": 0,
        "roughnessFactor": 0.84431313707611155
      }
    },
    {
      "doubleSided": true,
      "emissiveFactor": [
        0,
        0,
        0
      ],
      "name": "color_11107152mat.009",
      "pbrMetallicRoughness": {
        "baseColorFactor": [
          0.530196,
          0.385882,
          0.25097999999999998,
          1
        ],
        "metallicFactor": 0,
        "roughnessFactor": 1
      }
    },
    {
      "doubleSided": true,
      "emissiveFactor": [
        0,
        0,
        0
      ],
      "name": "color_11107152mat.010",
      "pbrMetallicRoughness": {
        "baseColorFactor": [
          0.530196,
          0.385882,
          0.25097999999999998,
          1
        ],
        "metallicFactor": 0,
        "roughnessFactor": 1
      }
    },
    {
      "doubleSided": true,
      "emissiveFactor": [
        0,
        0,
        0
      ],
      "name": "color_16448250mat.010",
      "pbrMetallicRoughness": {
        "baseColorFactor": [
          0.78431399999999996,
          0.78431399999999996,
          0.78431399999999996,
          1
        ],
        "metallicFactor": 0,
        "roughnessFactor": 1
      }
    },
    {
      "doubleSided": true,
      "emissiveFactor": [
        0,
        0,
        0
      ],
      "name": "color_16448250mat.011",
      "pbrMetallicRoughness": {
        "baseColorFactor": [
          0.78431399999999996,
          0.78431399999999996,
          0.78431399999999996,
          1
        ],
        "metallicFactor": 0,
        "roughnessFactor": 1
      }
    },
    {
      "doubleSided": true,
      "emissiveFactor": [
        0,
        0,
        0
      ],
      "name": "color_2829873mat.012",
      "pbrMetallicRoughness": {
        "baseColorFactor": [
          0.13490199999999999,
          0.144314,
          0.153725,
          1
        ],
        "metallicFactor": 0,
        "roughnessFactor": 1
      }
    },
    {
      "doubleSided": true,
      "emissiveFactor": [
        0,
        0,
        0
      ],
      "name": "color_2829873mat.013",
      "pbrMetallicRoughness": {
        "baseColorFactor": [
          0.13490199999999999,
          0.144314,
          0.153725,
          1
        ],
        "metallicFactor": 0,
        "roughnessFactor": 1
      }
    },
    {
      "doubleSided": true,
      "emissiveFactor": [
        0,
        0,
        0
      ],
      "name": "color_2829873mat.014",
      "pbrMetallicRoughness": {
        "baseColorFactor": [
          0.13490199999999999,
          0.144314,
          0.153725,
          1
        ],
        "metallicFactor": 0,
        "roughnessFactor": 1
      }
    }
  ],
  "meshes": [
    {
      "primitives": [
        {
          "attributes": {
            "NORMAL": 1,
            "POSITION": 0
          },
          "indices": 2,
          "material": 1,
          "mode": 4
        }
      ]
    },
    {
      "primitives": [
        {
          "attributes": {
            "NORMAL": 4,
            "POSITION": 3
          },
          "indices": 5,
          "material": 3,
          "mode": 4
        }
      ]
    },
    {
      "primitives": [
        {
          "attributes": {
            "NORMAL": 7,
            "POSITION": 6
          },
          "indices": 8,
          "material": 4,
          "mode": 4
        }
      ]
    },
    {
      "primitives": [
        {
          "attributes": {
            "NORMAL": 10,
            "POSITION": 9
          },
          "indices": 11,
          "material": 5,
          "mode": 4
        }
      ]
    },
    {
      "primitives": [
        {
          "attributes": {
            "NORMAL": 13,
            "POSITION": 12
          },
          "indices": 14,
          "material": 6,
          "mode": 4
        }
      ]
    },
    {
      "primitives": [
        {
          "attributes": {
            "NORMAL": 16,
            "POSITION": 15
          },
          "indices": 17,
          "material": 7,
          "mode": 4
        }
      ]
    },
    {
      "primitives": [
        {
          "attributes": {
            "NORMAL": 19,
            "POSITION": 18
          },
          "indices": 20,
          "material": 8,
          "mode": 4
        }
      ]
    },
    {
      "primitives": [
        {
          "attributes": {
            "NORMAL": 22,
            "POSITION": 21
          },
          "indices": 23,
          "material": 9,
          "mode": 4
        }
      ]
    },
    {
      "primitives": [
        {
          "attributes": {
            "NORMAL": 25,
            "POSITION": 24
          },
          "indices": 26,
          "material": 10,
          "mode": 4
        }
      ]
    },
    {
      "primitives": [
        {
          "attributes": {
            "NORMAL": 28,
            "POSITION": 27
          },
          "indices": 29,
          "material": 0,
          "mode": 4
        }
      ]
    },
    {
      "primitives": [
        {
          "attributes": {
            "NORMAL": 31,
            "POSITION": 30
          },
          "indices": 32,
          "material": 2,
          "mode": 4
        }
      ]
    }
  ],
  "nodes": [
    {
      "children": [
        1
      ],
      "name": "RootNode (gltf orientation matrix)",
      "rotation": [
        -0.70710678118654746,
        -0,
        -0,
        0.70710678118654757
      ]
    },
    {
      "children": [
        2
      ],
      "name": "RootNode (model correction matrix)"
    },
    {
      "children": [
        3,
        4,
        5,
        6,
        7,
        8,
        9,
        10,
        11,
        12,
        13
      ],
      "name": "AmazingMongo6.obj.cleaner.materialmerger.gles"
    },
    {
      "mesh": 0,
      "name": ""
    },
    {
      "mesh": 1,
      "name": ""
    },
    {
      "mesh": 2,
      "name": ""
    },
    {
      "mesh": 3,
      "name": ""
    },
    {
      "mesh": 4,
      "name": ""
    },
    {
      "mesh": 5,
      "name": ""
    },
    {
      "mesh": 6,
      "name": ""
    },
    {
      "mesh": 7,
      "name": ""
    },
    {
      "mesh": 8,
      "name": ""
    },
    {
      "mesh": 9,
      "name": ""
    },
    {
      "mesh": 10,
      "name": ""
    }
  ],
  "scene": 0,
  "scenes": [
    {
      "name": "OSG_Scene",
      "nodes": [
        0
      ]
    }
  ]
}

